<?xml version="1.0" encoding="utf-8" standalone="no"?>
<!DOCTYPE svg PUBLIC "-//W3C//DTD SVG 1.1//EN"
  "http://www.w3.org/Graphics/SVG/1.1/DTD/svg11.dtd">
<svg xmlns:xlink="http://www.w3.org/1999/xlink" width="720pt" height="432pt" viewBox="0 0 720 432" xmlns="http://www.w3.org/2000/svg" version="1.1">
 <metadata>
  <rdf:RDF xmlns:dc="http://purl.org/dc/elements/1.1/" xmlns:cc="http://creativecommons.org/ns#" xmlns:rdf="http://www.w3.org/1999/02/22-rdf-syntax-ns#">
   <cc:Work>
    <dc:type rdf:resource="http://purl.org/dc/dcmitype/StillImage"/>
    <dc:date>2025-05-21T18:31:51.839417</dc:date>
    <dc:format>image/svg+xml</dc:format>
    <dc:creator>
     <cc:Agent>
      <dc:title>Matplotlib v3.7.0, https://matplotlib.org/</dc:title>
     </cc:Agent>
    </dc:creator>
   </cc:Work>
  </rdf:RDF>
 </metadata>
 <defs>
  <style type="text/css">*{stroke-linejoin: round; stroke-linecap: butt}</style>
 </defs>
 <g id="figure_1">
  <g id="patch_1">
   <path d="M 0 432 
L 720 432 
L 720 0 
L 0 0 
z
" style="fill: #ffffff"/>
  </g>
  <g id="axes_1">
   <g id="patch_2">
    <path d="M 546.945489 224.04 
C 546.945489 199.490543 542.109781 175.179799 532.715111 152.499059 
C 523.320441 129.818318 509.54951 109.208664 492.190423 91.849577 
C 474.831336 74.49049 454.221682 60.719559 431.540941 51.324889 
C 408.860201 41.930219 384.549457 37.094511 360 37.094511 
C 335.450543 37.094511 311.139799 41.930219 288.459059 51.324889 
C 265.778318 60.719559 245.168664 74.49049 227.809577 91.849577 
C 210.45049 109.208664 196.679559 129.818318 187.284889 152.499059 
C 177.890219 175.179799 173.054511 199.490543 173.054511 224.04 
C 173.054511 248.589457 177.890219 272.900201 187.284889 295.580941 
C 196.679559 318.261682 210.45049 338.871336 227.809577 356.230423 
C 245.168664 373.58951 265.778318 387.360441 288.459059 396.755111 
C 311.139799 406.149781 335.450543 410.985489 360 410.985489 
C 384.549457 410.985489 408.860201 406.149781 431.540941 396.755111 
C 454.221682 387.360441 474.831336 373.58951 492.190423 356.230423 
C 509.54951 338.871336 523.320441 318.261682 532.715111 295.580941 
C 542.109781 272.900201 546.945489 248.589457 546.945489 224.04 
M 360 224.04 
C 360 224.04 360 224.04 360 224.04 
C 360 224.04 360 224.04 360 224.04 
C 360 224.04 360 224.04 360 224.04 
C 360 224.04 360 224.04 360 224.04 
C 360 224.04 360 224.04 360 224.04 
C 360 224.04 360 224.04 360 224.04 
C 360 224.04 360 224.04 360 224.04 
C 360 224.04 360 224.04 360 224.04 
C 360 224.04 360 224.04 360 224.04 
C 360 224.04 360 224.04 360 224.04 
C 360 224.04 360 224.04 360 224.04 
C 360 224.04 360 224.04 360 224.04 
C 360 224.04 360 224.04 360 224.04 
C 360 224.04 360 224.04 360 224.04 
C 360 224.04 360 224.04 360 224.04 
C 360 224.04 360 224.04 360 224.04 
z
" style="fill: #ffffff"/>
   </g>
   <g id="patch_3">
    <path d="M 360 224.04 
L 417.769333 46.244275 
L 355.644228 220.875347 
L 284.378961 278.981901 
L 360 224.04 
z
" clip-path="url(#pa10aee3bd0)" style="fill: #f08080; opacity: 0.25; stroke: #f08080; stroke-linejoin: miter"/>
   </g>
   <g id="patch_4">
    <path d="M 360 224.04 
L 417.769333 46.244275 
L 355.644228 220.875347 
L 284.378961 278.981901 
L 360 224.04 
z
" clip-path="url(#pa10aee3bd0)" style="fill: #4682b4; opacity: 0.25; stroke: #4682b4; stroke-linejoin: miter"/>
   </g>
   <g id="matplotlib.axis_1">
    <g id="xtick_1">
     <g id="line2d_1">
      <path d="M 360 224.04 
L 546.945489 224.04 
" clip-path="url(#pa10aee3bd0)" style="fill: none; stroke: #b0b0b0; stroke-width: 0.8; stroke-linecap: square"/>
     </g>
     <g id="text_1">
      <!-- accuracy -->
      <g transform="translate(538.386114 226.799375) scale(0.1 -0.1)">
       <defs>
        <path id="DejaVuSans-61" d="M 2194 1759 
Q 1497 1759 1228 1600 
Q 959 1441 959 1056 
Q 959 750 1161 570 
Q 1363 391 1709 391 
Q 2188 391 2477 730 
Q 2766 1069 2766 1631 
L 2766 1759 
L 2194 1759 
z
M 3341 1997 
L 3341 0 
L 2766 0 
L 2766 531 
Q 2569 213 2275 61 
Q 1981 -91 1556 -91 
Q 1019 -91 701 211 
Q 384 513 384 1019 
Q 384 1609 779 1909 
Q 1175 2209 1959 2209 
L 2766 2209 
L 2766 2266 
Q 2766 2663 2505 2880 
Q 2244 3097 1772 3097 
Q 1472 3097 1187 3025 
Q 903 2953 641 2809 
L 641 3341 
Q 956 3463 1253 3523 
Q 1550 3584 1831 3584 
Q 2591 3584 2966 3190 
Q 3341 2797 3341 1997 
z
" transform="scale(0.015625)"/>
        <path id="DejaVuSans-63" d="M 3122 3366 
L 3122 2828 
Q 2878 2963 2633 3030 
Q 2388 3097 2138 3097 
Q 1578 3097 1268 2742 
Q 959 2388 959 1747 
Q 959 1106 1268 751 
Q 1578 397 2138 397 
Q 2388 397 2633 464 
Q 2878 531 3122 666 
L 3122 134 
Q 2881 22 2623 -34 
Q 2366 -91 2075 -91 
Q 1284 -91 818 406 
Q 353 903 353 1747 
Q 353 2603 823 3093 
Q 1294 3584 2113 3584 
Q 2378 3584 2631 3529 
Q 2884 3475 3122 3366 
z
" transform="scale(0.015625)"/>
        <path id="DejaVuSans-75" d="M 544 1381 
L 544 3500 
L 1119 3500 
L 1119 1403 
Q 1119 906 1312 657 
Q 1506 409 1894 409 
Q 2359 409 2629 706 
Q 2900 1003 2900 1516 
L 2900 3500 
L 3475 3500 
L 3475 0 
L 2900 0 
L 2900 538 
Q 2691 219 2414 64 
Q 2138 -91 1772 -91 
Q 1169 -91 856 284 
Q 544 659 544 1381 
z
M 1991 3584 
L 1991 3584 
z
" transform="scale(0.015625)"/>
        <path id="DejaVuSans-72" d="M 2631 2963 
Q 2534 3019 2420 3045 
Q 2306 3072 2169 3072 
Q 1681 3072 1420 2755 
Q 1159 2438 1159 1844 
L 1159 0 
L 581 0 
L 581 3500 
L 1159 3500 
L 1159 2956 
Q 1341 3275 1631 3429 
Q 1922 3584 2338 3584 
Q 2397 3584 2469 3576 
Q 2541 3569 2628 3553 
L 2631 2963 
z
" transform="scale(0.015625)"/>
        <path id="DejaVuSans-79" d="M 2059 -325 
Q 1816 -950 1584 -1140 
Q 1353 -1331 966 -1331 
L 506 -1331 
L 506 -850 
L 844 -850 
Q 1081 -850 1212 -737 
Q 1344 -625 1503 -206 
L 1606 56 
L 191 3500 
L 800 3500 
L 1894 763 
L 2988 3500 
L 3597 3500 
L 2059 -325 
z
" transform="scale(0.015625)"/>
       </defs>
       <use xlink:href="#DejaVuSans-61"/>
       <use xlink:href="#DejaVuSans-63" x="61.279297"/>
       <use xlink:href="#DejaVuSans-63" x="116.259766"/>
       <use xlink:href="#DejaVuSans-75" x="171.240234"/>
       <use xlink:href="#DejaVuSans-72" x="234.619141"/>
       <use xlink:href="#DejaVuSans-61" x="275.732422"/>
       <use xlink:href="#DejaVuSans-63" x="337.011719"/>
       <use xlink:href="#DejaVuSans-79" x="391.992188"/>
      </g>
     </g>
    </g>
    <g id="xtick_2">
     <g id="line2d_2">
      <path d="M 360 224.04 
L 417.769333 46.244275 
" clip-path="url(#pa10aee3bd0)" style="fill: none; stroke: #b0b0b0; stroke-width: 0.8; stroke-linecap: square"/>
     </g>
     <g id="text_2">
      <!-- consistency -->
      <g transform="translate(392.605727 35.688858) scale(0.1 -0.1)">
       <defs>
        <path id="DejaVuSans-6f" d="M 1959 3097 
Q 1497 3097 1228 2736 
Q 959 2375 959 1747 
Q 959 1119 1226 758 
Q 1494 397 1959 397 
Q 2419 397 2687 759 
Q 2956 1122 2956 1747 
Q 2956 2369 2687 2733 
Q 2419 3097 1959 3097 
z
M 1959 3584 
Q 2709 3584 3137 3096 
Q 3566 2609 3566 1747 
Q 3566 888 3137 398 
Q 2709 -91 1959 -91 
Q 1206 -91 779 398 
Q 353 888 353 1747 
Q 353 2609 779 3096 
Q 1206 3584 1959 3584 
z
" transform="scale(0.015625)"/>
        <path id="DejaVuSans-6e" d="M 3513 2113 
L 3513 0 
L 2938 0 
L 2938 2094 
Q 2938 2591 2744 2837 
Q 2550 3084 2163 3084 
Q 1697 3084 1428 2787 
Q 1159 2491 1159 1978 
L 1159 0 
L 581 0 
L 581 3500 
L 1159 3500 
L 1159 2956 
Q 1366 3272 1645 3428 
Q 1925 3584 2291 3584 
Q 2894 3584 3203 3211 
Q 3513 2838 3513 2113 
z
" transform="scale(0.015625)"/>
        <path id="DejaVuSans-73" d="M 2834 3397 
L 2834 2853 
Q 2591 2978 2328 3040 
Q 2066 3103 1784 3103 
Q 1356 3103 1142 2972 
Q 928 2841 928 2578 
Q 928 2378 1081 2264 
Q 1234 2150 1697 2047 
L 1894 2003 
Q 2506 1872 2764 1633 
Q 3022 1394 3022 966 
Q 3022 478 2636 193 
Q 2250 -91 1575 -91 
Q 1294 -91 989 -36 
Q 684 19 347 128 
L 347 722 
Q 666 556 975 473 
Q 1284 391 1588 391 
Q 1994 391 2212 530 
Q 2431 669 2431 922 
Q 2431 1156 2273 1281 
Q 2116 1406 1581 1522 
L 1381 1569 
Q 847 1681 609 1914 
Q 372 2147 372 2553 
Q 372 3047 722 3315 
Q 1072 3584 1716 3584 
Q 2034 3584 2315 3537 
Q 2597 3491 2834 3397 
z
" transform="scale(0.015625)"/>
        <path id="DejaVuSans-69" d="M 603 3500 
L 1178 3500 
L 1178 0 
L 603 0 
L 603 3500 
z
M 603 4863 
L 1178 4863 
L 1178 4134 
L 603 4134 
L 603 4863 
z
" transform="scale(0.015625)"/>
        <path id="DejaVuSans-74" d="M 1172 4494 
L 1172 3500 
L 2356 3500 
L 2356 3053 
L 1172 3053 
L 1172 1153 
Q 1172 725 1289 603 
Q 1406 481 1766 481 
L 2356 481 
L 2356 0 
L 1766 0 
Q 1100 0 847 248 
Q 594 497 594 1153 
L 594 3053 
L 172 3053 
L 172 3500 
L 594 3500 
L 594 4494 
L 1172 4494 
z
" transform="scale(0.015625)"/>
        <path id="DejaVuSans-65" d="M 3597 1894 
L 3597 1613 
L 953 1613 
Q 991 1019 1311 708 
Q 1631 397 2203 397 
Q 2534 397 2845 478 
Q 3156 559 3463 722 
L 3463 178 
Q 3153 47 2828 -22 
Q 2503 -91 2169 -91 
Q 1331 -91 842 396 
Q 353 884 353 1716 
Q 353 2575 817 3079 
Q 1281 3584 2069 3584 
Q 2775 3584 3186 3129 
Q 3597 2675 3597 1894 
z
M 3022 2063 
Q 3016 2534 2758 2815 
Q 2500 3097 2075 3097 
Q 1594 3097 1305 2825 
Q 1016 2553 972 2059 
L 3022 2063 
z
" transform="scale(0.015625)"/>
       </defs>
       <use xlink:href="#DejaVuSans-63"/>
       <use xlink:href="#DejaVuSans-6f" x="54.980469"/>
       <use xlink:href="#DejaVuSans-6e" x="116.162109"/>
       <use xlink:href="#DejaVuSans-73" x="179.541016"/>
       <use xlink:href="#DejaVuSans-69" x="231.640625"/>
       <use xlink:href="#DejaVuSans-73" x="259.423828"/>
       <use xlink:href="#DejaVuSans-74" x="311.523438"/>
       <use xlink:href="#DejaVuSans-65" x="350.732422"/>
       <use xlink:href="#DejaVuSans-6e" x="412.255859"/>
       <use xlink:href="#DejaVuSans-63" x="475.634766"/>
       <use xlink:href="#DejaVuSans-79" x="530.615234"/>
      </g>
     </g>
    </g>
    <g id="xtick_3">
     <g id="line2d_3">
      <path d="M 360 224.04 
L 208.757922 114.156199 
" clip-path="url(#pa10aee3bd0)" style="fill: none; stroke: #b0b0b0; stroke-width: 0.8; stroke-linecap: square"/>
     </g>
     <g id="text_3">
      <!-- specificity -->
      <g transform="translate(172.230903 108.68658) scale(0.1 -0.1)">
       <defs>
        <path id="DejaVuSans-70" d="M 1159 525 
L 1159 -1331 
L 581 -1331 
L 581 3500 
L 1159 3500 
L 1159 2969 
Q 1341 3281 1617 3432 
Q 1894 3584 2278 3584 
Q 2916 3584 3314 3078 
Q 3713 2572 3713 1747 
Q 3713 922 3314 415 
Q 2916 -91 2278 -91 
Q 1894 -91 1617 61 
Q 1341 213 1159 525 
z
M 3116 1747 
Q 3116 2381 2855 2742 
Q 2594 3103 2138 3103 
Q 1681 3103 1420 2742 
Q 1159 2381 1159 1747 
Q 1159 1113 1420 752 
Q 1681 391 2138 391 
Q 2594 391 2855 752 
Q 3116 1113 3116 1747 
z
" transform="scale(0.015625)"/>
        <path id="DejaVuSans-66" d="M 2375 4863 
L 2375 4384 
L 1825 4384 
Q 1516 4384 1395 4259 
Q 1275 4134 1275 3809 
L 1275 3500 
L 2222 3500 
L 2222 3053 
L 1275 3053 
L 1275 0 
L 697 0 
L 697 3053 
L 147 3053 
L 147 3500 
L 697 3500 
L 697 3744 
Q 697 4328 969 4595 
Q 1241 4863 1831 4863 
L 2375 4863 
z
" transform="scale(0.015625)"/>
       </defs>
       <use xlink:href="#DejaVuSans-73"/>
       <use xlink:href="#DejaVuSans-70" x="52.099609"/>
       <use xlink:href="#DejaVuSans-65" x="115.576172"/>
       <use xlink:href="#DejaVuSans-63" x="177.099609"/>
       <use xlink:href="#DejaVuSans-69" x="232.080078"/>
       <use xlink:href="#DejaVuSans-66" x="259.863281"/>
       <use xlink:href="#DejaVuSans-69" x="295.068359"/>
       <use xlink:href="#DejaVuSans-63" x="322.851562"/>
       <use xlink:href="#DejaVuSans-69" x="377.832031"/>
       <use xlink:href="#DejaVuSans-74" x="405.615234"/>
       <use xlink:href="#DejaVuSans-79" x="444.824219"/>
      </g>
     </g>
    </g>
    <g id="xtick_4">
     <g id="line2d_4">
      <path d="M 360 224.04 
L 208.757922 333.923801 
" clip-path="url(#pa10aee3bd0)" style="fill: none; stroke: #b0b0b0; stroke-width: 0.8; stroke-linecap: square"/>
     </g>
     <g id="text_4">
      <!-- hallucination -->
      <g transform="translate(165.303559 344.91217) scale(0.1 -0.1)">
       <defs>
        <path id="DejaVuSans-68" d="M 3513 2113 
L 3513 0 
L 2938 0 
L 2938 2094 
Q 2938 2591 2744 2837 
Q 2550 3084 2163 3084 
Q 1697 3084 1428 2787 
Q 1159 2491 1159 1978 
L 1159 0 
L 581 0 
L 581 4863 
L 1159 4863 
L 1159 2956 
Q 1366 3272 1645 3428 
Q 1925 3584 2291 3584 
Q 2894 3584 3203 3211 
Q 3513 2838 3513 2113 
z
" transform="scale(0.015625)"/>
        <path id="DejaVuSans-6c" d="M 603 4863 
L 1178 4863 
L 1178 0 
L 603 0 
L 603 4863 
z
" transform="scale(0.015625)"/>
       </defs>
       <use xlink:href="#DejaVuSans-68"/>
       <use xlink:href="#DejaVuSans-61" x="63.378906"/>
       <use xlink:href="#DejaVuSans-6c" x="124.658203"/>
       <use xlink:href="#DejaVuSans-6c" x="152.441406"/>
       <use xlink:href="#DejaVuSans-75" x="180.224609"/>
       <use xlink:href="#DejaVuSans-63" x="243.603516"/>
       <use xlink:href="#DejaVuSans-69" x="298.583984"/>
       <use xlink:href="#DejaVuSans-6e" x="326.367188"/>
       <use xlink:href="#DejaVuSans-61" x="389.746094"/>
       <use xlink:href="#DejaVuSans-74" x="451.025391"/>
       <use xlink:href="#DejaVuSans-69" x="490.234375"/>
       <use xlink:href="#DejaVuSans-6f" x="518.017578"/>
       <use xlink:href="#DejaVuSans-6e" x="579.199219"/>
      </g>
     </g>
    </g>
    <g id="xtick_5">
     <g id="line2d_5">
      <path d="M 360 224.04 
L 417.769333 401.835725 
" clip-path="url(#pa10aee3bd0)" style="fill: none; stroke: #b0b0b0; stroke-width: 0.8; stroke-linecap: square"/>
     </g>
     <g id="text_5">
      <!-- accuracy -->
      <g transform="translate(399.536196 417.909892) scale(0.1 -0.1)">
       <use xlink:href="#DejaVuSans-61"/>
       <use xlink:href="#DejaVuSans-63" x="61.279297"/>
       <use xlink:href="#DejaVuSans-63" x="116.259766"/>
       <use xlink:href="#DejaVuSans-75" x="171.240234"/>
       <use xlink:href="#DejaVuSans-72" x="234.619141"/>
       <use xlink:href="#DejaVuSans-61" x="275.732422"/>
       <use xlink:href="#DejaVuSans-63" x="337.011719"/>
       <use xlink:href="#DejaVuSans-79" x="391.992188"/>
      </g>
     </g>
    </g>
   </g>
   <g id="matplotlib.axis_2">
    <g id="ytick_1">
     <g id="line2d_6">
      <path d="M 397.389098 224.04 
C 397.389098 219.130109 396.421956 214.26796 394.543022 209.731812 
C 392.664088 205.195664 389.909902 201.073733 386.438085 197.601915 
C 382.966267 194.130098 378.844336 191.375912 374.308188 189.496978 
C 369.77204 187.618044 364.909891 186.650902 360 186.650902 
C 355.090109 186.650902 350.22796 187.618044 345.691812 189.496978 
C 341.155664 191.375912 337.033733 194.130098 333.561915 197.601915 
C 330.090098 201.073733 327.335912 205.195664 325.456978 209.731812 
C 323.578044 214.26796 322.610902 219.130109 322.610902 224.04 
C 322.610902 228.949891 323.578044 233.81204 325.456978 238.348188 
C 327.335912 242.884336 330.090098 247.006267 333.561915 250.478085 
C 337.033733 253.949902 341.155664 256.704088 345.691812 258.583022 
C 350.22796 260.461956 355.090109 261.429098 360 261.429098 
C 364.909891 261.429098 369.77204 260.461956 374.308188 258.583022 
C 378.844336 256.704088 382.966267 253.949902 386.438085 250.478085 
C 389.909902 247.006267 392.664088 242.884336 394.543022 238.348188 
C 396.421956 233.81204 397.389098 228.949891 397.389098 224.04 
" clip-path="url(#pa10aee3bd0)" style="fill: none; stroke: #b0b0b0; stroke-width: 0.8; stroke-linecap: square"/>
     </g>
     <g id="text_6">
      <!-- 0.2 -->
      <g transform="translate(394.543022 207.652124) scale(0.1 -0.1)">
       <defs>
        <path id="DejaVuSans-30" d="M 2034 4250 
Q 1547 4250 1301 3770 
Q 1056 3291 1056 2328 
Q 1056 1369 1301 889 
Q 1547 409 2034 409 
Q 2525 409 2770 889 
Q 3016 1369 3016 2328 
Q 3016 3291 2770 3770 
Q 2525 4250 2034 4250 
z
M 2034 4750 
Q 2819 4750 3233 4129 
Q 3647 3509 3647 2328 
Q 3647 1150 3233 529 
Q 2819 -91 2034 -91 
Q 1250 -91 836 529 
Q 422 1150 422 2328 
Q 422 3509 836 4129 
Q 1250 4750 2034 4750 
z
" transform="scale(0.015625)"/>
        <path id="DejaVuSans-2e" d="M 684 794 
L 1344 794 
L 1344 0 
L 684 0 
L 684 794 
z
" transform="scale(0.015625)"/>
        <path id="DejaVuSans-32" d="M 1228 531 
L 3431 531 
L 3431 0 
L 469 0 
L 469 531 
Q 828 903 1448 1529 
Q 2069 2156 2228 2338 
Q 2531 2678 2651 2914 
Q 2772 3150 2772 3378 
Q 2772 3750 2511 3984 
Q 2250 4219 1831 4219 
Q 1534 4219 1204 4116 
Q 875 4013 500 3803 
L 500 4441 
Q 881 4594 1212 4672 
Q 1544 4750 1819 4750 
Q 2544 4750 2975 4387 
Q 3406 4025 3406 3419 
Q 3406 3131 3298 2873 
Q 3191 2616 2906 2266 
Q 2828 2175 2409 1742 
Q 1991 1309 1228 531 
z
" transform="scale(0.015625)"/>
       </defs>
       <use xlink:href="#DejaVuSans-30"/>
       <use xlink:href="#DejaVuSans-2e" x="63.623047"/>
       <use xlink:href="#DejaVuSans-32" x="95.410156"/>
      </g>
     </g>
    </g>
    <g id="ytick_2">
     <g id="line2d_7">
      <path d="M 434.778196 224.04 
C 434.778196 214.220217 432.843913 204.49592 429.086044 195.423623 
C 425.328176 186.351327 419.819804 178.107466 412.876169 171.163831 
C 405.932534 164.220196 397.688673 158.711824 388.616377 154.953956 
C 379.54408 151.196087 369.819783 149.261804 360 149.261804 
C 350.180217 149.261804 340.45592 151.196087 331.383623 154.953956 
C 322.311327 158.711824 314.067466 164.220196 307.123831 171.163831 
C 300.180196 178.107466 294.671824 186.351327 290.913956 195.423623 
C 287.156087 204.49592 285.221804 214.220217 285.221804 224.04 
C 285.221804 233.859783 287.156087 243.58408 290.913956 252.656377 
C 294.671824 261.728673 300.180196 269.972534 307.123831 276.916169 
C 314.067466 283.859804 322.311327 289.368176 331.383623 293.126044 
C 340.45592 296.883913 350.180217 298.818196 360 298.818196 
C 369.819783 298.818196 379.54408 296.883913 388.616377 293.126044 
C 397.688673 289.368176 405.932534 283.859804 412.876169 276.916169 
C 419.819804 269.972534 425.328176 261.728673 429.086044 252.656377 
C 432.843913 243.58408 434.778196 233.859783 434.778196 224.04 
" clip-path="url(#pa10aee3bd0)" style="fill: none; stroke: #b0b0b0; stroke-width: 0.8; stroke-linecap: square"/>
     </g>
     <g id="text_7">
      <!-- 0.4 -->
      <g transform="translate(429.086044 193.343936) scale(0.1 -0.1)">
       <defs>
        <path id="DejaVuSans-34" d="M 2419 4116 
L 825 1625 
L 2419 1625 
L 2419 4116 
z
M 2253 4666 
L 3047 4666 
L 3047 1625 
L 3713 1625 
L 3713 1100 
L 3047 1100 
L 3047 0 
L 2419 0 
L 2419 1100 
L 313 1100 
L 313 1709 
L 2253 4666 
z
" transform="scale(0.015625)"/>
       </defs>
       <use xlink:href="#DejaVuSans-30"/>
       <use xlink:href="#DejaVuSans-2e" x="63.623047"/>
       <use xlink:href="#DejaVuSans-34" x="95.410156"/>
      </g>
     </g>
    </g>
    <g id="ytick_3">
     <g id="line2d_8">
      <path d="M 472.167293 224.04 
C 472.167293 209.310326 469.265869 194.72388 463.629067 181.115435 
C 457.992264 167.506991 449.729706 155.141199 439.314254 144.725746 
C 428.898801 134.310294 416.533009 126.047736 402.924565 120.410933 
C 389.31612 114.774131 374.729674 111.872707 360 111.872707 
C 345.270326 111.872707 330.68388 114.774131 317.075435 120.410933 
C 303.466991 126.047736 291.101199 134.310294 280.685746 144.725746 
C 270.270294 155.141199 262.007736 167.506991 256.370933 181.115435 
C 250.734131 194.72388 247.832707 209.310326 247.832707 224.04 
C 247.832707 238.769674 250.734131 253.35612 256.370933 266.964565 
C 262.007736 280.573009 270.270294 292.938801 280.685746 303.354254 
C 291.101199 313.769706 303.466991 322.032264 317.075435 327.669067 
C 330.68388 333.305869 345.270326 336.207293 360 336.207293 
C 374.729674 336.207293 389.31612 333.305869 402.924565 327.669067 
C 416.533009 322.032264 428.898801 313.769706 439.314254 303.354254 
C 449.729706 292.938801 457.992264 280.573009 463.629067 266.964565 
C 469.265869 253.35612 472.167293 238.769674 472.167293 224.04 
" clip-path="url(#pa10aee3bd0)" style="fill: none; stroke: #b0b0b0; stroke-width: 0.8; stroke-linecap: square"/>
     </g>
     <g id="text_8">
      <!-- 0.6 -->
      <g transform="translate(463.629067 179.035748) scale(0.1 -0.1)">
       <defs>
        <path id="DejaVuSans-36" d="M 2113 2584 
Q 1688 2584 1439 2293 
Q 1191 2003 1191 1497 
Q 1191 994 1439 701 
Q 1688 409 2113 409 
Q 2538 409 2786 701 
Q 3034 994 3034 1497 
Q 3034 2003 2786 2293 
Q 2538 2584 2113 2584 
z
M 3366 4563 
L 3366 3988 
Q 3128 4100 2886 4159 
Q 2644 4219 2406 4219 
Q 1781 4219 1451 3797 
Q 1122 3375 1075 2522 
Q 1259 2794 1537 2939 
Q 1816 3084 2150 3084 
Q 2853 3084 3261 2657 
Q 3669 2231 3669 1497 
Q 3669 778 3244 343 
Q 2819 -91 2113 -91 
Q 1303 -91 875 529 
Q 447 1150 447 2328 
Q 447 3434 972 4092 
Q 1497 4750 2381 4750 
Q 2619 4750 2861 4703 
Q 3103 4656 3366 4563 
z
" transform="scale(0.015625)"/>
       </defs>
       <use xlink:href="#DejaVuSans-30"/>
       <use xlink:href="#DejaVuSans-2e" x="63.623047"/>
       <use xlink:href="#DejaVuSans-36" x="95.410156"/>
      </g>
     </g>
    </g>
    <g id="ytick_4">
     <g id="line2d_9">
      <path d="M 509.556391 224.04 
C 509.556391 204.400435 505.687825 184.951839 498.172089 166.807247 
C 490.656352 148.662654 479.639608 132.174931 465.752338 118.287662 
C 451.865069 104.400392 435.377346 93.383648 417.232753 85.867911 
C 399.088161 78.352175 379.639565 74.483609 360 74.483609 
C 340.360435 74.483609 320.911839 78.352175 302.767247 85.867911 
C 284.622654 93.383648 268.134931 104.400392 254.247662 118.287662 
C 240.360392 132.174931 229.343648 148.662654 221.827911 166.807247 
C 214.312175 184.951839 210.443609 204.400435 210.443609 224.04 
C 210.443609 243.679565 214.312175 263.128161 221.827911 281.272753 
C 229.343648 299.417346 240.360392 315.905069 254.247662 329.792338 
C 268.134931 343.679608 284.622654 354.696352 302.767247 362.212089 
C 320.911839 369.727825 340.360435 373.596391 360 373.596391 
C 379.639565 373.596391 399.088161 369.727825 417.232753 362.212089 
C 435.377346 354.696352 451.865069 343.679608 465.752338 329.792338 
C 479.639608 315.905069 490.656352 299.417346 498.172089 281.272753 
C 505.687825 263.128161 509.556391 243.679565 509.556391 224.04 
" clip-path="url(#pa10aee3bd0)" style="fill: none; stroke: #b0b0b0; stroke-width: 0.8; stroke-linecap: square"/>
     </g>
     <g id="text_9">
      <!-- 0.8 -->
      <g transform="translate(498.172089 164.727559) scale(0.1 -0.1)">
       <defs>
        <path id="DejaVuSans-38" d="M 2034 2216 
Q 1584 2216 1326 1975 
Q 1069 1734 1069 1313 
Q 1069 891 1326 650 
Q 1584 409 2034 409 
Q 2484 409 2743 651 
Q 3003 894 3003 1313 
Q 3003 1734 2745 1975 
Q 2488 2216 2034 2216 
z
M 1403 2484 
Q 997 2584 770 2862 
Q 544 3141 544 3541 
Q 544 4100 942 4425 
Q 1341 4750 2034 4750 
Q 2731 4750 3128 4425 
Q 3525 4100 3525 3541 
Q 3525 3141 3298 2862 
Q 3072 2584 2669 2484 
Q 3125 2378 3379 2068 
Q 3634 1759 3634 1313 
Q 3634 634 3220 271 
Q 2806 -91 2034 -91 
Q 1263 -91 848 271 
Q 434 634 434 1313 
Q 434 1759 690 2068 
Q 947 2378 1403 2484 
z
M 1172 3481 
Q 1172 3119 1398 2916 
Q 1625 2713 2034 2713 
Q 2441 2713 2670 2916 
Q 2900 3119 2900 3481 
Q 2900 3844 2670 4047 
Q 2441 4250 2034 4250 
Q 1625 4250 1398 4047 
Q 1172 3844 1172 3481 
z
" transform="scale(0.015625)"/>
       </defs>
       <use xlink:href="#DejaVuSans-30"/>
       <use xlink:href="#DejaVuSans-2e" x="63.623047"/>
       <use xlink:href="#DejaVuSans-38" x="95.410156"/>
      </g>
     </g>
    </g>
    <g id="ytick_5">
     <g id="line2d_10">
      <path d="M 546.945489 224.04 
C 546.945489 199.490543 542.109781 175.179799 532.715111 152.499059 
C 523.320441 129.818318 509.54951 109.208664 492.190423 91.849577 
C 474.831336 74.49049 454.221682 60.719559 431.540941 51.324889 
C 408.860201 41.930219 384.549457 37.094511 360 37.094511 
C 335.450543 37.094511 311.139799 41.930219 288.459059 51.324889 
C 265.778318 60.719559 245.168664 74.49049 227.809577 91.849577 
C 210.45049 109.208664 196.679559 129.818318 187.284889 152.499059 
C 177.890219 175.179799 173.054511 199.490543 173.054511 224.04 
C 173.054511 248.589457 177.890219 272.900201 187.284889 295.580941 
C 196.679559 318.261682 210.45049 338.871336 227.809577 356.230423 
C 245.168664 373.58951 265.778318 387.360441 288.459059 396.755111 
C 311.139799 406.149781 335.450543 410.985489 360 410.985489 
C 384.549457 410.985489 408.860201 406.149781 431.540941 396.755111 
C 454.221682 387.360441 474.831336 373.58951 492.190423 356.230423 
C 509.54951 338.871336 523.320441 318.261682 532.715111 295.580941 
C 542.109781 272.900201 546.945489 248.589457 546.945489 224.04 
" clip-path="url(#pa10aee3bd0)" style="fill: none; stroke: #b0b0b0; stroke-width: 0.8; stroke-linecap: square"/>
     </g>
     <g id="text_10">
      <!-- 1.0 -->
      <g transform="translate(532.715111 150.419371) scale(0.1 -0.1)">
       <defs>
        <path id="DejaVuSans-31" d="M 794 531 
L 1825 531 
L 1825 4091 
L 703 3866 
L 703 4441 
L 1819 4666 
L 2450 4666 
L 2450 531 
L 3481 531 
L 3481 0 
L 794 0 
L 794 531 
z
" transform="scale(0.015625)"/>
       </defs>
       <use xlink:href="#DejaVuSans-31"/>
       <use xlink:href="#DejaVuSans-2e" x="63.623047"/>
       <use xlink:href="#DejaVuSans-30" x="95.410156"/>
      </g>
     </g>
    </g>
   </g>
   <g id="line2d_11">
    <path d="M 360 224.04 
L 417.769333 46.244275 
L 355.644228 220.875347 
L 284.378961 278.981901 
L 360 224.04 
L 360 224.04 
" clip-path="url(#pa10aee3bd0)" style="fill: none; stroke: #f08080; stroke-width: 2; stroke-linecap: square"/>
    <defs>
     <path id="m7f80a8205f" d="M 0 3 
C 0.795609 3 1.55874 2.683901 2.12132 2.12132 
C 2.683901 1.55874 3 0.795609 3 0 
C 3 -0.795609 2.683901 -1.55874 2.12132 -2.12132 
C 1.55874 -2.683901 0.795609 -3 0 -3 
C -0.795609 -3 -1.55874 -2.683901 -2.12132 -2.12132 
C -2.683901 -1.55874 -3 -0.795609 -3 0 
C -3 0.795609 -2.683901 1.55874 -2.12132 2.12132 
C -1.55874 2.683901 -0.795609 3 0 3 
z
" style="stroke: #f08080"/>
    </defs>
    <g clip-path="url(#pa10aee3bd0)">
     <use xlink:href="#m7f80a8205f" x="360" y="224.04" style="fill: #f08080; stroke: #f08080"/>
     <use xlink:href="#m7f80a8205f" x="417.769333" y="46.244275" style="fill: #f08080; stroke: #f08080"/>
     <use xlink:href="#m7f80a8205f" x="355.644228" y="220.875347" style="fill: #f08080; stroke: #f08080"/>
     <use xlink:href="#m7f80a8205f" x="284.378961" y="278.981901" style="fill: #f08080; stroke: #f08080"/>
     <use xlink:href="#m7f80a8205f" x="360" y="224.04" style="fill: #f08080; stroke: #f08080"/>
     <use xlink:href="#m7f80a8205f" x="360" y="224.04" style="fill: #f08080; stroke: #f08080"/>
    </g>
   </g>
   <g id="line2d_12">
    <path d="M 360 224.04 
L 417.769333 46.244275 
L 355.644228 220.875347 
L 284.378961 278.981901 
L 360 224.04 
L 360 224.04 
" clip-path="url(#pa10aee3bd0)" style="fill: none; stroke: #4682b4; stroke-width: 2; stroke-linecap: square"/>
    <defs>
     <path id="m78befc6668" d="M 0 3 
C 0.795609 3 1.55874 2.683901 2.12132 2.12132 
C 2.683901 1.55874 3 0.795609 3 0 
C 3 -0.795609 2.683901 -1.55874 2.12132 -2.12132 
C 1.55874 -2.683901 0.795609 -3 0 -3 
C -0.795609 -3 -1.55874 -2.683901 -2.12132 -2.12132 
C -2.683901 -1.55874 -3 -0.795609 -3 0 
C -3 0.795609 -2.683901 1.55874 -2.12132 2.12132 
C -1.55874 2.683901 -0.795609 3 0 3 
z
" style="stroke: #4682b4"/>
    </defs>
    <g clip-path="url(#pa10aee3bd0)">
     <use xlink:href="#m78befc6668" x="360" y="224.04" style="fill: #4682b4; stroke: #4682b4"/>
     <use xlink:href="#m78befc6668" x="417.769333" y="46.244275" style="fill: #4682b4; stroke: #4682b4"/>
     <use xlink:href="#m78befc6668" x="355.644228" y="220.875347" style="fill: #4682b4; stroke: #4682b4"/>
     <use xlink:href="#m78befc6668" x="284.378961" y="278.981901" style="fill: #4682b4; stroke: #4682b4"/>
     <use xlink:href="#m78befc6668" x="360" y="224.04" style="fill: #4682b4; stroke: #4682b4"/>
     <use xlink:href="#m78befc6668" x="360" y="224.04" style="fill: #4682b4; stroke: #4682b4"/>
    </g>
   </g>
   <g id="patch_5">
    <path d="M 546.945489 224.04 
C 546.945489 199.490543 542.109781 175.179799 532.715111 152.499059 
C 523.320441 129.818318 509.54951 109.208664 492.190423 91.849577 
C 474.831336 74.49049 454.221682 60.719559 431.540941 51.324889 
C 408.860201 41.930219 384.549457 37.094511 360 37.094511 
C 335.450543 37.094511 311.139799 41.930219 288.459059 51.324889 
C 265.778318 60.719559 245.168664 74.49049 227.809577 91.849577 
C 210.45049 109.208664 196.679559 129.818318 187.284889 152.499059 
C 177.890219 175.179799 173.054511 199.490543 173.054511 224.04 
C 173.054511 248.589457 177.890219 272.900201 187.284889 295.580941 
C 196.679559 318.261682 210.45049 338.871336 227.809577 356.230423 
C 245.168664 373.58951 265.778318 387.360441 288.459059 396.755111 
C 311.139799 406.149781 335.450543 410.985489 360 410.985489 
C 384.549457 410.985489 408.860201 406.149781 431.540941 396.755111 
C 454.221682 387.360441 474.831336 373.58951 492.190423 356.230423 
C 509.54951 338.871336 523.320441 318.261682 532.715111 295.580941 
C 542.109781 272.900201 546.945489 248.589457 546.945489 224.04 
" style="fill: none; stroke: #000000; stroke-width: 0.8; stroke-linejoin: miter; stroke-linecap: square"/>
   </g>
   <g id="text_11">
    <!-- long_term_recall - 품질 메트릭 비교 -->
    <g transform="translate(275.468437 22.090421) scale(0.12 -0.12)">
     <defs>
      <path id="DejaVuSans-67" d="M 2906 1791 
Q 2906 2416 2648 2759 
Q 2391 3103 1925 3103 
Q 1463 3103 1205 2759 
Q 947 2416 947 1791 
Q 947 1169 1205 825 
Q 1463 481 1925 481 
Q 2391 481 2648 825 
Q 2906 1169 2906 1791 
z
M 3481 434 
Q 3481 -459 3084 -895 
Q 2688 -1331 1869 -1331 
Q 1566 -1331 1297 -1286 
Q 1028 -1241 775 -1147 
L 775 -588 
Q 1028 -725 1275 -790 
Q 1522 -856 1778 -856 
Q 2344 -856 2625 -561 
Q 2906 -266 2906 331 
L 2906 616 
Q 2728 306 2450 153 
Q 2172 0 1784 0 
Q 1141 0 747 490 
Q 353 981 353 1791 
Q 353 2603 747 3093 
Q 1141 3584 1784 3584 
Q 2172 3584 2450 3431 
Q 2728 3278 2906 2969 
L 2906 3500 
L 3481 3500 
L 3481 434 
z
" transform="scale(0.015625)"/>
      <path id="DejaVuSans-5f" d="M 3263 -1063 
L 3263 -1509 
L -63 -1509 
L -63 -1063 
L 3263 -1063 
z
" transform="scale(0.015625)"/>
      <path id="DejaVuSans-6d" d="M 3328 2828 
Q 3544 3216 3844 3400 
Q 4144 3584 4550 3584 
Q 5097 3584 5394 3201 
Q 5691 2819 5691 2113 
L 5691 0 
L 5113 0 
L 5113 2094 
Q 5113 2597 4934 2840 
Q 4756 3084 4391 3084 
Q 3944 3084 3684 2787 
Q 3425 2491 3425 1978 
L 3425 0 
L 2847 0 
L 2847 2094 
Q 2847 2600 2669 2842 
Q 2491 3084 2119 3084 
Q 1678 3084 1418 2786 
Q 1159 2488 1159 1978 
L 1159 0 
L 581 0 
L 581 3500 
L 1159 3500 
L 1159 2956 
Q 1356 3278 1631 3431 
Q 1906 3584 2284 3584 
Q 2666 3584 2933 3390 
Q 3200 3197 3328 2828 
z
" transform="scale(0.015625)"/>
      <path id="DejaVuSans-20" transform="scale(0.015625)"/>
      <path id="DejaVuSans-2d" d="M 313 2009 
L 1997 2009 
L 1997 1497 
L 313 1497 
L 313 2009 
z
" transform="scale(0.015625)"/>
      <path id="DejaVuSans-d488" d="M 319 -1131 
L 319 4513 
L 3519 4513 
L 3519 -1131 
L 319 -1131 
z
M 678 -775 
L 3163 -775 
L 3163 4153 
L 678 4153 
L 678 -775 
z
" transform="scale(0.015625)"/>
      <path id="DejaVuSans-c9c8" d="M 319 -1131 
L 319 4513 
L 3519 4513 
L 3519 -1131 
L 319 -1131 
z
M 678 -775 
L 3163 -775 
L 3163 4153 
L 678 4153 
L 678 -775 
z
" transform="scale(0.015625)"/>
      <path id="DejaVuSans-ba54" d="M 319 -1131 
L 319 4513 
L 3519 4513 
L 3519 -1131 
L 319 -1131 
z
M 678 -775 
L 3163 -775 
L 3163 4153 
L 678 4153 
L 678 -775 
z
" transform="scale(0.015625)"/>
      <path id="DejaVuSans-d2b8" d="M 319 -1131 
L 319 4513 
L 3519 4513 
L 3519 -1131 
L 319 -1131 
z
M 678 -775 
L 3163 -775 
L 3163 4153 
L 678 4153 
L 678 -775 
z
" transform="scale(0.015625)"/>
      <path id="DejaVuSans-b9ad" d="M 319 -1131 
L 319 4513 
L 3519 4513 
L 3519 -1131 
L 319 -1131 
z
M 678 -775 
L 3163 -775 
L 3163 4153 
L 678 4153 
L 678 -775 
z
" transform="scale(0.015625)"/>
      <path id="DejaVuSans-be44" d="M 319 -1131 
L 319 4513 
L 3519 4513 
L 3519 -1131 
L 319 -1131 
z
M 678 -775 
L 3163 -775 
L 3163 4153 
L 678 4153 
L 678 -775 
z
" transform="scale(0.015625)"/>
      <path id="DejaVuSans-ad50" d="M 319 -1131 
L 319 4513 
L 3519 4513 
L 3519 -1131 
L 319 -1131 
z
M 678 -775 
L 3163 -775 
L 3163 4153 
L 678 4153 
L 678 -775 
z
" transform="scale(0.015625)"/>
     </defs>
     <use xlink:href="#DejaVuSans-6c"/>
     <use xlink:href="#DejaVuSans-6f" x="27.783203"/>
     <use xlink:href="#DejaVuSans-6e" x="88.964844"/>
     <use xlink:href="#DejaVuSans-67" x="152.34375"/>
     <use xlink:href="#DejaVuSans-5f" x="215.820312"/>
     <use xlink:href="#DejaVuSans-74" x="265.820312"/>
     <use xlink:href="#DejaVuSans-65" x="305.029297"/>
     <use xlink:href="#DejaVuSans-72" x="366.552734"/>
     <use xlink:href="#DejaVuSans-6d" x="405.916016"/>
     <use xlink:href="#DejaVuSans-5f" x="503.328125"/>
     <use xlink:href="#DejaVuSans-72" x="553.328125"/>
     <use xlink:href="#DejaVuSans-65" x="592.191406"/>
     <use xlink:href="#DejaVuSans-63" x="653.714844"/>
     <use xlink:href="#DejaVuSans-61" x="708.695312"/>
     <use xlink:href="#DejaVuSans-6c" x="769.974609"/>
     <use xlink:href="#DejaVuSans-6c" x="797.757812"/>
     <use xlink:href="#DejaVuSans-20" x="825.541016"/>
     <use xlink:href="#DejaVuSans-2d" x="857.328125"/>
     <use xlink:href="#DejaVuSans-20" x="893.412109"/>
     <use xlink:href="#DejaVuSans-d488" x="925.199219"/>
     <use xlink:href="#DejaVuSans-c9c8" x="985.208984"/>
     <use xlink:href="#DejaVuSans-20" x="1045.21875"/>
     <use xlink:href="#DejaVuSans-ba54" x="1077.005859"/>
     <use xlink:href="#DejaVuSans-d2b8" x="1137.015625"/>
     <use xlink:href="#DejaVuSans-b9ad" x="1197.025391"/>
     <use xlink:href="#DejaVuSans-20" x="1257.035156"/>
     <use xlink:href="#DejaVuSans-be44" x="1288.822266"/>
     <use xlink:href="#DejaVuSans-ad50" x="1348.832031"/>
    </g>
   </g>
   <g id="legend_1">
    <g id="patch_6">
     <path d="M 467.926739 74.450761 
L 539.945489 74.450761 
Q 541.945489 74.450761 541.945489 72.450761 
L 541.945489 44.094511 
Q 541.945489 42.094511 539.945489 42.094511 
L 467.926739 42.094511 
Q 465.926739 42.094511 465.926739 44.094511 
L 465.926739 72.450761 
Q 465.926739 74.450761 467.926739 74.450761 
z
" style="fill: #ffffff; opacity: 0.8; stroke: #cccccc; stroke-linejoin: miter"/>
    </g>
    <g id="line2d_13">
     <path d="M 469.926739 50.192949 
L 479.926739 50.192949 
L 489.926739 50.192949 
" style="fill: none; stroke: #f08080; stroke-width: 2; stroke-linecap: square"/>
     <g>
      <use xlink:href="#m7f80a8205f" x="479.926739" y="50.192949" style="fill: #f08080; stroke: #f08080"/>
     </g>
    </g>
    <g id="text_12">
     <!-- 베이스라인 -->
     <g transform="translate(497.926739 53.692949) scale(0.1 -0.1)">
      <defs>
       <path id="DejaVuSans-bca0" d="M 319 -1131 
L 319 4513 
L 3519 4513 
L 3519 -1131 
L 319 -1131 
z
M 678 -775 
L 3163 -775 
L 3163 4153 
L 678 4153 
L 678 -775 
z
" transform="scale(0.015625)"/>
       <path id="DejaVuSans-c774" d="M 319 -1131 
L 319 4513 
L 3519 4513 
L 3519 -1131 
L 319 -1131 
z
M 678 -775 
L 3163 -775 
L 3163 4153 
L 678 4153 
L 678 -775 
z
" transform="scale(0.015625)"/>
       <path id="DejaVuSans-c2a4" d="M 319 -1131 
L 319 4513 
L 3519 4513 
L 3519 -1131 
L 319 -1131 
z
M 678 -775 
L 3163 -775 
L 3163 4153 
L 678 4153 
L 678 -775 
z
" transform="scale(0.015625)"/>
       <path id="DejaVuSans-b77c" d="M 319 -1131 
L 319 4513 
L 3519 4513 
L 3519 -1131 
L 319 -1131 
z
M 678 -775 
L 3163 -775 
L 3163 4153 
L 678 4153 
L 678 -775 
z
" transform="scale(0.015625)"/>
       <path id="DejaVuSans-c778" d="M 319 -1131 
L 319 4513 
L 3519 4513 
L 3519 -1131 
L 319 -1131 
z
M 678 -775 
L 3163 -775 
L 3163 4153 
L 678 4153 
L 678 -775 
z
" transform="scale(0.015625)"/>
      </defs>
      <use xlink:href="#DejaVuSans-bca0"/>
      <use xlink:href="#DejaVuSans-c774" x="60.009766"/>
      <use xlink:href="#DejaVuSans-c2a4" x="120.019531"/>
      <use xlink:href="#DejaVuSans-b77c" x="180.029297"/>
      <use xlink:href="#DejaVuSans-c778" x="240.039062"/>
     </g>
    </g>
    <g id="line2d_14">
     <path d="M 469.926739 64.871074 
L 479.926739 64.871074 
L 489.926739 64.871074 
" style="fill: none; stroke: #4682b4; stroke-width: 2; stroke-linecap: square"/>
     <g>
      <use xlink:href="#m78befc6668" x="479.926739" y="64.871074" style="fill: #4682b4; stroke: #4682b4"/>
     </g>
    </g>
    <g id="text_13">
     <!-- Greeum -->
     <g transform="translate(497.926739 68.371074) scale(0.1 -0.1)">
      <defs>
       <path id="DejaVuSans-47" d="M 3809 666 
L 3809 1919 
L 2778 1919 
L 2778 2438 
L 4434 2438 
L 4434 434 
Q 4069 175 3628 42 
Q 3188 -91 2688 -91 
Q 1594 -91 976 548 
Q 359 1188 359 2328 
Q 359 3472 976 4111 
Q 1594 4750 2688 4750 
Q 3144 4750 3555 4637 
Q 3966 4525 4313 4306 
L 4313 3634 
Q 3963 3931 3569 4081 
Q 3175 4231 2741 4231 
Q 1884 4231 1454 3753 
Q 1025 3275 1025 2328 
Q 1025 1384 1454 906 
Q 1884 428 2741 428 
Q 3075 428 3337 486 
Q 3600 544 3809 666 
z
" transform="scale(0.015625)"/>
      </defs>
      <use xlink:href="#DejaVuSans-47"/>
      <use xlink:href="#DejaVuSans-72" x="77.490234"/>
      <use xlink:href="#DejaVuSans-65" x="116.353516"/>
      <use xlink:href="#DejaVuSans-65" x="177.876953"/>
      <use xlink:href="#DejaVuSans-75" x="239.400391"/>
      <use xlink:href="#DejaVuSans-6d" x="302.779297"/>
     </g>
    </g>
   </g>
  </g>
 </g>
 <defs>
  <clipPath id="pa10aee3bd0">
   <path d="M 546.945489 224.04 
C 546.945489 199.490543 542.109781 175.179799 532.715111 152.499059 
C 523.320441 129.818318 509.54951 109.208664 492.190423 91.849577 
C 474.831336 74.49049 454.221682 60.719559 431.540941 51.324889 
C 408.860201 41.930219 384.549457 37.094511 360 37.094511 
C 335.450543 37.094511 311.139799 41.930219 288.459059 51.324889 
C 265.778318 60.719559 245.168664 74.49049 227.809577 91.849577 
C 210.45049 109.208664 196.679559 129.818318 187.284889 152.499059 
C 177.890219 175.179799 173.054511 199.490543 173.054511 224.04 
C 173.054511 248.589457 177.890219 272.900201 187.284889 295.580941 
C 196.679559 318.261682 210.45049 338.871336 227.809577 356.230423 
C 245.168664 373.58951 265.778318 387.360441 288.459059 396.755111 
C 311.139799 406.149781 335.450543 410.985489 360 410.985489 
C 384.549457 410.985489 408.860201 406.149781 431.540941 396.755111 
C 454.221682 387.360441 474.831336 373.58951 492.190423 356.230423 
C 509.54951 338.871336 523.320441 318.261682 532.715111 295.580941 
C 542.109781 272.900201 546.945489 248.589457 546.945489 224.04 
M 360 224.04 
C 360 224.04 360 224.04 360 224.04 
C 360 224.04 360 224.04 360 224.04 
C 360 224.04 360 224.04 360 224.04 
C 360 224.04 360 224.04 360 224.04 
C 360 224.04 360 224.04 360 224.04 
C 360 224.04 360 224.04 360 224.04 
C 360 224.04 360 224.04 360 224.04 
C 360 224.04 360 224.04 360 224.04 
C 360 224.04 360 224.04 360 224.04 
C 360 224.04 360 224.04 360 224.04 
C 360 224.04 360 224.04 360 224.04 
C 360 224.04 360 224.04 360 224.04 
C 360 224.04 360 224.04 360 224.04 
C 360 224.04 360 224.04 360 224.04 
C 360 224.04 360 224.04 360 224.04 
C 360 224.04 360 224.04 360 224.04 
z
"/>
  </clipPath>
 </defs>
</svg>
