<?xml version="1.0" encoding="utf-8" standalone="no"?>
<!DOCTYPE svg PUBLIC "-//W3C//DTD SVG 1.1//EN"
  "http://www.w3.org/Graphics/SVG/1.1/DTD/svg11.dtd">
<svg xmlns:xlink="http://www.w3.org/1999/xlink" width="720pt" height="432pt" viewBox="0 0 720 432" xmlns="http://www.w3.org/2000/svg" version="1.1">
 <metadata>
  <rdf:RDF xmlns:dc="http://purl.org/dc/elements/1.1/" xmlns:cc="http://creativecommons.org/ns#" xmlns:rdf="http://www.w3.org/1999/02/22-rdf-syntax-ns#">
   <cc:Work>
    <dc:type rdf:resource="http://purl.org/dc/dcmitype/StillImage"/>
    <dc:date>2025-05-21T18:34:23.891279</dc:date>
    <dc:format>image/svg+xml</dc:format>
    <dc:creator>
     <cc:Agent>
      <dc:title>Matplotlib v3.7.0, https://matplotlib.org/</dc:title>
     </cc:Agent>
    </dc:creator>
   </cc:Work>
  </rdf:RDF>
 </metadata>
 <defs>
  <style type="text/css">*{stroke-linejoin: round; stroke-linecap: butt}</style>
 </defs>
 <g id="figure_1">
  <g id="patch_1">
   <path d="M 0 432 
L 720 432 
L 720 0 
L 0 0 
z
" style="fill: #ffffff"/>
  </g>
  <g id="axes_1">
   <g id="patch_2">
    <path d="M 557.16 224.04 
C 557.16 198.149186 552.060074 172.510128 542.152089 148.590134 
C 532.244103 124.670141 517.720743 102.934397 499.413173 84.626827 
C 481.105603 66.319257 459.369859 51.795897 435.449866 41.887911 
C 411.529872 31.979926 385.890814 26.88 360 26.88 
C 334.109186 26.88 308.470128 31.979926 284.550134 41.887911 
C 260.630141 51.795897 238.894397 66.319257 220.586827 84.626827 
C 202.279257 102.934397 187.755897 124.670141 177.847911 148.590134 
C 167.939926 172.510128 162.84 198.149186 162.84 224.04 
C 162.84 249.930814 167.939926 275.569872 177.847911 299.489866 
C 187.755897 323.409859 202.279257 345.145603 220.586827 363.453173 
C 238.894397 381.760743 260.630141 396.284103 284.550134 406.192089 
C 308.470128 416.100074 334.109186 421.2 360 421.2 
C 385.890814 421.2 411.529872 416.100074 435.449866 406.192089 
C 459.369859 396.284103 481.105603 381.760743 499.413173 363.453173 
C 517.720743 345.145603 532.244103 323.409859 542.152089 299.489866 
C 552.060074 275.569872 557.16 249.930814 557.16 224.04 
M 360 224.04 
C 360 224.04 360 224.04 360 224.04 
C 360 224.04 360 224.04 360 224.04 
C 360 224.04 360 224.04 360 224.04 
C 360 224.04 360 224.04 360 224.04 
C 360 224.04 360 224.04 360 224.04 
C 360 224.04 360 224.04 360 224.04 
C 360 224.04 360 224.04 360 224.04 
C 360 224.04 360 224.04 360 224.04 
C 360 224.04 360 224.04 360 224.04 
C 360 224.04 360 224.04 360 224.04 
C 360 224.04 360 224.04 360 224.04 
C 360 224.04 360 224.04 360 224.04 
C 360 224.04 360 224.04 360 224.04 
C 360 224.04 360 224.04 360 224.04 
C 360 224.04 360 224.04 360 224.04 
C 360 224.04 360 224.04 360 224.04 
z
" style="fill: #ffffff"/>
   </g>
   <g id="patch_3">
    <path d="M 360 224.04 
L 458.58 53.294431 
L 357.160896 219.122528 
L 261.42 224.04 
L 360 224.04 
L 360 224.04 
z
" clip-path="url(#pa89439139a)" style="fill: #f08080; opacity: 0.25; stroke: #f08080; stroke-linejoin: miter"/>
   </g>
   <g id="patch_4">
    <path d="M 360 224.04 
L 458.58 53.294431 
L 357.160896 219.122528 
L 261.42 224.04 
L 360 224.04 
L 360 224.04 
z
" clip-path="url(#pa89439139a)" style="fill: #4682b4; opacity: 0.25; stroke: #4682b4; stroke-linejoin: miter"/>
   </g>
   <g id="matplotlib.axis_1">
    <g id="xtick_1">
     <g id="line2d_1">
      <path d="M 360 224.04 
L 557.16 224.04 
" clip-path="url(#pa89439139a)" style="fill: none; stroke: #b0b0b0; stroke-width: 0.8; stroke-linecap: square"/>
     </g>
     <g id="text_1">
      <!-- accuracy -->
      <g transform="translate(548.600625 226.799375) scale(0.1 -0.1)">
       <defs>
        <path id="DejaVuSans-61" d="M 2194 1759 
Q 1497 1759 1228 1600 
Q 959 1441 959 1056 
Q 959 750 1161 570 
Q 1363 391 1709 391 
Q 2188 391 2477 730 
Q 2766 1069 2766 1631 
L 2766 1759 
L 2194 1759 
z
M 3341 1997 
L 3341 0 
L 2766 0 
L 2766 531 
Q 2569 213 2275 61 
Q 1981 -91 1556 -91 
Q 1019 -91 701 211 
Q 384 513 384 1019 
Q 384 1609 779 1909 
Q 1175 2209 1959 2209 
L 2766 2209 
L 2766 2266 
Q 2766 2663 2505 2880 
Q 2244 3097 1772 3097 
Q 1472 3097 1187 3025 
Q 903 2953 641 2809 
L 641 3341 
Q 956 3463 1253 3523 
Q 1550 3584 1831 3584 
Q 2591 3584 2966 3190 
Q 3341 2797 3341 1997 
z
" transform="scale(0.015625)"/>
        <path id="DejaVuSans-63" d="M 3122 3366 
L 3122 2828 
Q 2878 2963 2633 3030 
Q 2388 3097 2138 3097 
Q 1578 3097 1268 2742 
Q 959 2388 959 1747 
Q 959 1106 1268 751 
Q 1578 397 2138 397 
Q 2388 397 2633 464 
Q 2878 531 3122 666 
L 3122 134 
Q 2881 22 2623 -34 
Q 2366 -91 2075 -91 
Q 1284 -91 818 406 
Q 353 903 353 1747 
Q 353 2603 823 3093 
Q 1294 3584 2113 3584 
Q 2378 3584 2631 3529 
Q 2884 3475 3122 3366 
z
" transform="scale(0.015625)"/>
        <path id="DejaVuSans-75" d="M 544 1381 
L 544 3500 
L 1119 3500 
L 1119 1403 
Q 1119 906 1312 657 
Q 1506 409 1894 409 
Q 2359 409 2629 706 
Q 2900 1003 2900 1516 
L 2900 3500 
L 3475 3500 
L 3475 0 
L 2900 0 
L 2900 538 
Q 2691 219 2414 64 
Q 2138 -91 1772 -91 
Q 1169 -91 856 284 
Q 544 659 544 1381 
z
M 1991 3584 
L 1991 3584 
z
" transform="scale(0.015625)"/>
        <path id="DejaVuSans-72" d="M 2631 2963 
Q 2534 3019 2420 3045 
Q 2306 3072 2169 3072 
Q 1681 3072 1420 2755 
Q 1159 2438 1159 1844 
L 1159 0 
L 581 0 
L 581 3500 
L 1159 3500 
L 1159 2956 
Q 1341 3275 1631 3429 
Q 1922 3584 2338 3584 
Q 2397 3584 2469 3576 
Q 2541 3569 2628 3553 
L 2631 2963 
z
" transform="scale(0.015625)"/>
        <path id="DejaVuSans-79" d="M 2059 -325 
Q 1816 -950 1584 -1140 
Q 1353 -1331 966 -1331 
L 506 -1331 
L 506 -850 
L 844 -850 
Q 1081 -850 1212 -737 
Q 1344 -625 1503 -206 
L 1606 56 
L 191 3500 
L 800 3500 
L 1894 763 
L 2988 3500 
L 3597 3500 
L 2059 -325 
z
" transform="scale(0.015625)"/>
       </defs>
       <use xlink:href="#DejaVuSans-61"/>
       <use xlink:href="#DejaVuSans-63" x="61.279297"/>
       <use xlink:href="#DejaVuSans-63" x="116.259766"/>
       <use xlink:href="#DejaVuSans-75" x="171.240234"/>
       <use xlink:href="#DejaVuSans-72" x="234.619141"/>
       <use xlink:href="#DejaVuSans-61" x="275.732422"/>
       <use xlink:href="#DejaVuSans-63" x="337.011719"/>
       <use xlink:href="#DejaVuSans-79" x="391.992188"/>
      </g>
     </g>
    </g>
    <g id="xtick_2">
     <g id="line2d_2">
      <path d="M 360 224.04 
L 458.58 53.294431 
" clip-path="url(#pa89439139a)" style="fill: none; stroke: #b0b0b0; stroke-width: 0.8; stroke-linecap: square"/>
     </g>
     <g id="text_2">
      <!-- consistency -->
      <g transform="translate(436.090156 43.929451) scale(0.1 -0.1)">
       <defs>
        <path id="DejaVuSans-6f" d="M 1959 3097 
Q 1497 3097 1228 2736 
Q 959 2375 959 1747 
Q 959 1119 1226 758 
Q 1494 397 1959 397 
Q 2419 397 2687 759 
Q 2956 1122 2956 1747 
Q 2956 2369 2687 2733 
Q 2419 3097 1959 3097 
z
M 1959 3584 
Q 2709 3584 3137 3096 
Q 3566 2609 3566 1747 
Q 3566 888 3137 398 
Q 2709 -91 1959 -91 
Q 1206 -91 779 398 
Q 353 888 353 1747 
Q 353 2609 779 3096 
Q 1206 3584 1959 3584 
z
" transform="scale(0.015625)"/>
        <path id="DejaVuSans-6e" d="M 3513 2113 
L 3513 0 
L 2938 0 
L 2938 2094 
Q 2938 2591 2744 2837 
Q 2550 3084 2163 3084 
Q 1697 3084 1428 2787 
Q 1159 2491 1159 1978 
L 1159 0 
L 581 0 
L 581 3500 
L 1159 3500 
L 1159 2956 
Q 1366 3272 1645 3428 
Q 1925 3584 2291 3584 
Q 2894 3584 3203 3211 
Q 3513 2838 3513 2113 
z
" transform="scale(0.015625)"/>
        <path id="DejaVuSans-73" d="M 2834 3397 
L 2834 2853 
Q 2591 2978 2328 3040 
Q 2066 3103 1784 3103 
Q 1356 3103 1142 2972 
Q 928 2841 928 2578 
Q 928 2378 1081 2264 
Q 1234 2150 1697 2047 
L 1894 2003 
Q 2506 1872 2764 1633 
Q 3022 1394 3022 966 
Q 3022 478 2636 193 
Q 2250 -91 1575 -91 
Q 1294 -91 989 -36 
Q 684 19 347 128 
L 347 722 
Q 666 556 975 473 
Q 1284 391 1588 391 
Q 1994 391 2212 530 
Q 2431 669 2431 922 
Q 2431 1156 2273 1281 
Q 2116 1406 1581 1522 
L 1381 1569 
Q 847 1681 609 1914 
Q 372 2147 372 2553 
Q 372 3047 722 3315 
Q 1072 3584 1716 3584 
Q 2034 3584 2315 3537 
Q 2597 3491 2834 3397 
z
" transform="scale(0.015625)"/>
        <path id="DejaVuSans-69" d="M 603 3500 
L 1178 3500 
L 1178 0 
L 603 0 
L 603 3500 
z
M 603 4863 
L 1178 4863 
L 1178 4134 
L 603 4134 
L 603 4863 
z
" transform="scale(0.015625)"/>
        <path id="DejaVuSans-74" d="M 1172 4494 
L 1172 3500 
L 2356 3500 
L 2356 3053 
L 1172 3053 
L 1172 1153 
Q 1172 725 1289 603 
Q 1406 481 1766 481 
L 2356 481 
L 2356 0 
L 1766 0 
Q 1100 0 847 248 
Q 594 497 594 1153 
L 594 3053 
L 172 3053 
L 172 3500 
L 594 3500 
L 594 4494 
L 1172 4494 
z
" transform="scale(0.015625)"/>
        <path id="DejaVuSans-65" d="M 3597 1894 
L 3597 1613 
L 953 1613 
Q 991 1019 1311 708 
Q 1631 397 2203 397 
Q 2534 397 2845 478 
Q 3156 559 3463 722 
L 3463 178 
Q 3153 47 2828 -22 
Q 2503 -91 2169 -91 
Q 1331 -91 842 396 
Q 353 884 353 1716 
Q 353 2575 817 3079 
Q 1281 3584 2069 3584 
Q 2775 3584 3186 3129 
Q 3597 2675 3597 1894 
z
M 3022 2063 
Q 3016 2534 2758 2815 
Q 2500 3097 2075 3097 
Q 1594 3097 1305 2825 
Q 1016 2553 972 2059 
L 3022 2063 
z
" transform="scale(0.015625)"/>
       </defs>
       <use xlink:href="#DejaVuSans-63"/>
       <use xlink:href="#DejaVuSans-6f" x="54.980469"/>
       <use xlink:href="#DejaVuSans-6e" x="116.162109"/>
       <use xlink:href="#DejaVuSans-73" x="179.541016"/>
       <use xlink:href="#DejaVuSans-69" x="231.640625"/>
       <use xlink:href="#DejaVuSans-73" x="259.423828"/>
       <use xlink:href="#DejaVuSans-74" x="311.523438"/>
       <use xlink:href="#DejaVuSans-65" x="350.732422"/>
       <use xlink:href="#DejaVuSans-6e" x="412.255859"/>
       <use xlink:href="#DejaVuSans-63" x="475.634766"/>
       <use xlink:href="#DejaVuSans-79" x="530.615234"/>
      </g>
     </g>
    </g>
    <g id="xtick_3">
     <g id="line2d_3">
      <path d="M 360 224.04 
L 261.42 53.294431 
" clip-path="url(#pa89439139a)" style="fill: none; stroke: #b0b0b0; stroke-width: 0.8; stroke-linecap: square"/>
     </g>
     <g id="text_3">
      <!-- specificity -->
      <g transform="translate(229.219219 43.929451) scale(0.1 -0.1)">
       <defs>
        <path id="DejaVuSans-70" d="M 1159 525 
L 1159 -1331 
L 581 -1331 
L 581 3500 
L 1159 3500 
L 1159 2969 
Q 1341 3281 1617 3432 
Q 1894 3584 2278 3584 
Q 2916 3584 3314 3078 
Q 3713 2572 3713 1747 
Q 3713 922 3314 415 
Q 2916 -91 2278 -91 
Q 1894 -91 1617 61 
Q 1341 213 1159 525 
z
M 3116 1747 
Q 3116 2381 2855 2742 
Q 2594 3103 2138 3103 
Q 1681 3103 1420 2742 
Q 1159 2381 1159 1747 
Q 1159 1113 1420 752 
Q 1681 391 2138 391 
Q 2594 391 2855 752 
Q 3116 1113 3116 1747 
z
" transform="scale(0.015625)"/>
        <path id="DejaVuSans-66" d="M 2375 4863 
L 2375 4384 
L 1825 4384 
Q 1516 4384 1395 4259 
Q 1275 4134 1275 3809 
L 1275 3500 
L 2222 3500 
L 2222 3053 
L 1275 3053 
L 1275 0 
L 697 0 
L 697 3053 
L 147 3053 
L 147 3500 
L 697 3500 
L 697 3744 
Q 697 4328 969 4595 
Q 1241 4863 1831 4863 
L 2375 4863 
z
" transform="scale(0.015625)"/>
       </defs>
       <use xlink:href="#DejaVuSans-73"/>
       <use xlink:href="#DejaVuSans-70" x="52.099609"/>
       <use xlink:href="#DejaVuSans-65" x="115.576172"/>
       <use xlink:href="#DejaVuSans-63" x="177.099609"/>
       <use xlink:href="#DejaVuSans-69" x="232.080078"/>
       <use xlink:href="#DejaVuSans-66" x="259.863281"/>
       <use xlink:href="#DejaVuSans-69" x="295.068359"/>
       <use xlink:href="#DejaVuSans-63" x="322.851562"/>
       <use xlink:href="#DejaVuSans-69" x="377.832031"/>
       <use xlink:href="#DejaVuSans-74" x="405.615234"/>
       <use xlink:href="#DejaVuSans-79" x="444.824219"/>
      </g>
     </g>
    </g>
    <g id="xtick_4">
     <g id="line2d_4">
      <path d="M 360 224.04 
L 162.84 224.04 
" clip-path="url(#pa89439139a)" style="fill: none; stroke: #b0b0b0; stroke-width: 0.8; stroke-linecap: square"/>
     </g>
     <g id="text_4">
      <!-- hallucination -->
      <g transform="translate(116.711875 226.799375) scale(0.1 -0.1)">
       <defs>
        <path id="DejaVuSans-68" d="M 3513 2113 
L 3513 0 
L 2938 0 
L 2938 2094 
Q 2938 2591 2744 2837 
Q 2550 3084 2163 3084 
Q 1697 3084 1428 2787 
Q 1159 2491 1159 1978 
L 1159 0 
L 581 0 
L 581 4863 
L 1159 4863 
L 1159 2956 
Q 1366 3272 1645 3428 
Q 1925 3584 2291 3584 
Q 2894 3584 3203 3211 
Q 3513 2838 3513 2113 
z
" transform="scale(0.015625)"/>
        <path id="DejaVuSans-6c" d="M 603 4863 
L 1178 4863 
L 1178 0 
L 603 0 
L 603 4863 
z
" transform="scale(0.015625)"/>
       </defs>
       <use xlink:href="#DejaVuSans-68"/>
       <use xlink:href="#DejaVuSans-61" x="63.378906"/>
       <use xlink:href="#DejaVuSans-6c" x="124.658203"/>
       <use xlink:href="#DejaVuSans-6c" x="152.441406"/>
       <use xlink:href="#DejaVuSans-75" x="180.224609"/>
       <use xlink:href="#DejaVuSans-63" x="243.603516"/>
       <use xlink:href="#DejaVuSans-69" x="298.583984"/>
       <use xlink:href="#DejaVuSans-6e" x="326.367188"/>
       <use xlink:href="#DejaVuSans-61" x="389.746094"/>
       <use xlink:href="#DejaVuSans-74" x="451.025391"/>
       <use xlink:href="#DejaVuSans-69" x="490.234375"/>
       <use xlink:href="#DejaVuSans-6f" x="518.017578"/>
       <use xlink:href="#DejaVuSans-6e" x="579.199219"/>
      </g>
     </g>
    </g>
    <g id="xtick_5">
     <g id="line2d_5">
      <path d="M 360 224.04 
L 261.42 394.785569 
" clip-path="url(#pa89439139a)" style="fill: none; stroke: #b0b0b0; stroke-width: 0.8; stroke-linecap: square"/>
     </g>
     <g id="text_5">
      <!-- accuracy -->
      <g transform="translate(231.860625 409.669299) scale(0.1 -0.1)">
       <use xlink:href="#DejaVuSans-61"/>
       <use xlink:href="#DejaVuSans-63" x="61.279297"/>
       <use xlink:href="#DejaVuSans-63" x="116.259766"/>
       <use xlink:href="#DejaVuSans-75" x="171.240234"/>
       <use xlink:href="#DejaVuSans-72" x="234.619141"/>
       <use xlink:href="#DejaVuSans-61" x="275.732422"/>
       <use xlink:href="#DejaVuSans-63" x="337.011719"/>
       <use xlink:href="#DejaVuSans-79" x="391.992188"/>
      </g>
     </g>
    </g>
    <g id="xtick_6">
     <g id="line2d_6">
      <path d="M 360 224.04 
L 458.58 394.785569 
" clip-path="url(#pa89439139a)" style="fill: none; stroke: #b0b0b0; stroke-width: 0.8; stroke-linecap: square"/>
     </g>
     <g id="text_6">
      <!-- accuracy -->
      <g transform="translate(443.020625 409.669299) scale(0.1 -0.1)">
       <use xlink:href="#DejaVuSans-61"/>
       <use xlink:href="#DejaVuSans-63" x="61.279297"/>
       <use xlink:href="#DejaVuSans-63" x="116.259766"/>
       <use xlink:href="#DejaVuSans-75" x="171.240234"/>
       <use xlink:href="#DejaVuSans-72" x="234.619141"/>
       <use xlink:href="#DejaVuSans-61" x="275.732422"/>
       <use xlink:href="#DejaVuSans-63" x="337.011719"/>
       <use xlink:href="#DejaVuSans-79" x="391.992188"/>
      </g>
     </g>
    </g>
   </g>
   <g id="matplotlib.axis_2">
    <g id="ytick_1">
     <g id="line2d_7">
      <path d="M 399.432 224.04 
C 399.432 218.861837 398.412015 213.734026 396.430418 208.950027 
C 394.448821 204.166028 391.544149 199.818879 387.882635 196.157365 
C 384.221121 192.495851 379.873972 189.591179 375.089973 187.609582 
C 370.305974 185.627985 365.178163 184.608 360 184.608 
C 354.821837 184.608 349.694026 185.627985 344.910027 187.609582 
C 340.126028 189.591179 335.778879 192.495851 332.117365 196.157365 
C 328.455851 199.818879 325.551179 204.166028 323.569582 208.950027 
C 321.587985 213.734026 320.568 218.861837 320.568 224.04 
C 320.568 229.218163 321.587985 234.345974 323.569582 239.129973 
C 325.551179 243.913972 328.455851 248.261121 332.117365 251.922635 
C 335.778879 255.584149 340.126028 258.488821 344.910027 260.470418 
C 349.694026 262.452015 354.821837 263.472 360 263.472 
C 365.178163 263.472 370.305974 262.452015 375.089973 260.470418 
C 379.873972 258.488821 384.221121 255.584149 387.882635 251.922635 
C 391.544149 248.261121 394.448821 243.913972 396.430418 239.129973 
C 398.412015 234.345974 399.432 229.218163 399.432 224.04 
" clip-path="url(#pa89439139a)" style="fill: none; stroke: #b0b0b0; stroke-width: 0.8; stroke-linecap: square"/>
     </g>
     <g id="text_7">
      <!-- 0.2 -->
      <g transform="translate(396.430418 206.870339) scale(0.1 -0.1)">
       <defs>
        <path id="DejaVuSans-30" d="M 2034 4250 
Q 1547 4250 1301 3770 
Q 1056 3291 1056 2328 
Q 1056 1369 1301 889 
Q 1547 409 2034 409 
Q 2525 409 2770 889 
Q 3016 1369 3016 2328 
Q 3016 3291 2770 3770 
Q 2525 4250 2034 4250 
z
M 2034 4750 
Q 2819 4750 3233 4129 
Q 3647 3509 3647 2328 
Q 3647 1150 3233 529 
Q 2819 -91 2034 -91 
Q 1250 -91 836 529 
Q 422 1150 422 2328 
Q 422 3509 836 4129 
Q 1250 4750 2034 4750 
z
" transform="scale(0.015625)"/>
        <path id="DejaVuSans-2e" d="M 684 794 
L 1344 794 
L 1344 0 
L 684 0 
L 684 794 
z
" transform="scale(0.015625)"/>
        <path id="DejaVuSans-32" d="M 1228 531 
L 3431 531 
L 3431 0 
L 469 0 
L 469 531 
Q 828 903 1448 1529 
Q 2069 2156 2228 2338 
Q 2531 2678 2651 2914 
Q 2772 3150 2772 3378 
Q 2772 3750 2511 3984 
Q 2250 4219 1831 4219 
Q 1534 4219 1204 4116 
Q 875 4013 500 3803 
L 500 4441 
Q 881 4594 1212 4672 
Q 1544 4750 1819 4750 
Q 2544 4750 2975 4387 
Q 3406 4025 3406 3419 
Q 3406 3131 3298 2873 
Q 3191 2616 2906 2266 
Q 2828 2175 2409 1742 
Q 1991 1309 1228 531 
z
" transform="scale(0.015625)"/>
       </defs>
       <use xlink:href="#DejaVuSans-30"/>
       <use xlink:href="#DejaVuSans-2e" x="63.623047"/>
       <use xlink:href="#DejaVuSans-32" x="95.410156"/>
      </g>
     </g>
    </g>
    <g id="ytick_2">
     <g id="line2d_8">
      <path d="M 438.864 224.04 
C 438.864 213.683674 436.82403 203.428051 432.860835 193.860054 
C 428.897641 184.292057 423.088297 175.597759 415.765269 168.274731 
C 408.442241 160.951703 399.747943 155.142359 390.179946 151.179165 
C 380.611949 147.21597 370.356326 145.176 360 145.176 
C 349.643674 145.176 339.388051 147.21597 329.820054 151.179165 
C 320.252057 155.142359 311.557759 160.951703 304.234731 168.274731 
C 296.911703 175.597759 291.102359 184.292057 287.139165 193.860054 
C 283.17597 203.428051 281.136 213.683674 281.136 224.04 
C 281.136 234.396326 283.17597 244.651949 287.139165 254.219946 
C 291.102359 263.787943 296.911703 272.482241 304.234731 279.805269 
C 311.557759 287.128297 320.252057 292.937641 329.820054 296.900835 
C 339.388051 300.86403 349.643674 302.904 360 302.904 
C 370.356326 302.904 380.611949 300.86403 390.179946 296.900835 
C 399.747943 292.937641 408.442241 287.128297 415.765269 279.805269 
C 423.088297 272.482241 428.897641 263.787943 432.860835 254.219946 
C 436.82403 244.651949 438.864 234.396326 438.864 224.04 
" clip-path="url(#pa89439139a)" style="fill: none; stroke: #b0b0b0; stroke-width: 0.8; stroke-linecap: square"/>
     </g>
     <g id="text_8">
      <!-- 0.4 -->
      <g transform="translate(432.860835 191.780366) scale(0.1 -0.1)">
       <defs>
        <path id="DejaVuSans-34" d="M 2419 4116 
L 825 1625 
L 2419 1625 
L 2419 4116 
z
M 2253 4666 
L 3047 4666 
L 3047 1625 
L 3713 1625 
L 3713 1100 
L 3047 1100 
L 3047 0 
L 2419 0 
L 2419 1100 
L 313 1100 
L 313 1709 
L 2253 4666 
z
" transform="scale(0.015625)"/>
       </defs>
       <use xlink:href="#DejaVuSans-30"/>
       <use xlink:href="#DejaVuSans-2e" x="63.623047"/>
       <use xlink:href="#DejaVuSans-34" x="95.410156"/>
      </g>
     </g>
    </g>
    <g id="ytick_3">
     <g id="line2d_9">
      <path d="M 478.296 224.04 
C 478.296 208.505512 475.236045 193.122077 469.291253 178.770081 
C 463.346462 164.418085 454.632446 151.376638 443.647904 140.392096 
C 432.663362 129.407554 419.621915 120.693538 405.269919 114.748747 
C 390.917923 108.803955 375.534488 105.744 360 105.744 
C 344.465512 105.744 329.082077 108.803955 314.730081 114.748747 
C 300.378085 120.693538 287.336638 129.407554 276.352096 140.392096 
C 265.367554 151.376638 256.653538 164.418085 250.708747 178.770081 
C 244.763955 193.122077 241.704 208.505512 241.704 224.04 
C 241.704 239.574488 244.763955 254.957923 250.708747 269.309919 
C 256.653538 283.661915 265.367554 296.703362 276.352096 307.687904 
C 287.336638 318.672446 300.378085 327.386462 314.730081 333.331253 
C 329.082077 339.276045 344.465512 342.336 360 342.336 
C 375.534488 342.336 390.917923 339.276045 405.269919 333.331253 
C 419.621915 327.386462 432.663362 318.672446 443.647904 307.687904 
C 454.632446 296.703362 463.346462 283.661915 469.291253 269.309919 
C 475.236045 254.957923 478.296 239.574488 478.296 224.04 
" clip-path="url(#pa89439139a)" style="fill: none; stroke: #b0b0b0; stroke-width: 0.8; stroke-linecap: square"/>
     </g>
     <g id="text_9">
      <!-- 0.6 -->
      <g transform="translate(469.291253 176.690393) scale(0.1 -0.1)">
       <defs>
        <path id="DejaVuSans-36" d="M 2113 2584 
Q 1688 2584 1439 2293 
Q 1191 2003 1191 1497 
Q 1191 994 1439 701 
Q 1688 409 2113 409 
Q 2538 409 2786 701 
Q 3034 994 3034 1497 
Q 3034 2003 2786 2293 
Q 2538 2584 2113 2584 
z
M 3366 4563 
L 3366 3988 
Q 3128 4100 2886 4159 
Q 2644 4219 2406 4219 
Q 1781 4219 1451 3797 
Q 1122 3375 1075 2522 
Q 1259 2794 1537 2939 
Q 1816 3084 2150 3084 
Q 2853 3084 3261 2657 
Q 3669 2231 3669 1497 
Q 3669 778 3244 343 
Q 2819 -91 2113 -91 
Q 1303 -91 875 529 
Q 447 1150 447 2328 
Q 447 3434 972 4092 
Q 1497 4750 2381 4750 
Q 2619 4750 2861 4703 
Q 3103 4656 3366 4563 
z
" transform="scale(0.015625)"/>
       </defs>
       <use xlink:href="#DejaVuSans-30"/>
       <use xlink:href="#DejaVuSans-2e" x="63.623047"/>
       <use xlink:href="#DejaVuSans-36" x="95.410156"/>
      </g>
     </g>
    </g>
    <g id="ytick_4">
     <g id="line2d_10">
      <path d="M 517.728 224.04 
C 517.728 203.327349 513.648059 182.816102 505.721671 163.680108 
C 497.795282 144.544113 486.176594 127.155518 471.530538 112.509462 
C 456.884482 97.863406 439.495887 86.244718 420.359892 78.318329 
C 401.223898 70.391941 380.712651 66.312 360 66.312 
C 339.287349 66.312 318.776102 70.391941 299.640108 78.318329 
C 280.504113 86.244718 263.115518 97.863406 248.469462 112.509462 
C 233.823406 127.155518 222.204718 144.544113 214.278329 163.680108 
C 206.351941 182.816102 202.272 203.327349 202.272 224.04 
C 202.272 244.752651 206.351941 265.263898 214.278329 284.399892 
C 222.204718 303.535887 233.823406 320.924482 248.469462 335.570538 
C 263.115518 350.216594 280.504113 361.835282 299.640108 369.761671 
C 318.776102 377.688059 339.287349 381.768 360 381.768 
C 380.712651 381.768 401.223898 377.688059 420.359892 369.761671 
C 439.495887 361.835282 456.884482 350.216594 471.530538 335.570538 
C 486.176594 320.924482 497.795282 303.535887 505.721671 284.399892 
C 513.648059 265.263898 517.728 244.752651 517.728 224.04 
" clip-path="url(#pa89439139a)" style="fill: none; stroke: #b0b0b0; stroke-width: 0.8; stroke-linecap: square"/>
     </g>
     <g id="text_10">
      <!-- 0.8 -->
      <g transform="translate(505.721671 161.60042) scale(0.1 -0.1)">
       <defs>
        <path id="DejaVuSans-38" d="M 2034 2216 
Q 1584 2216 1326 1975 
Q 1069 1734 1069 1313 
Q 1069 891 1326 650 
Q 1584 409 2034 409 
Q 2484 409 2743 651 
Q 3003 894 3003 1313 
Q 3003 1734 2745 1975 
Q 2488 2216 2034 2216 
z
M 1403 2484 
Q 997 2584 770 2862 
Q 544 3141 544 3541 
Q 544 4100 942 4425 
Q 1341 4750 2034 4750 
Q 2731 4750 3128 4425 
Q 3525 4100 3525 3541 
Q 3525 3141 3298 2862 
Q 3072 2584 2669 2484 
Q 3125 2378 3379 2068 
Q 3634 1759 3634 1313 
Q 3634 634 3220 271 
Q 2806 -91 2034 -91 
Q 1263 -91 848 271 
Q 434 634 434 1313 
Q 434 1759 690 2068 
Q 947 2378 1403 2484 
z
M 1172 3481 
Q 1172 3119 1398 2916 
Q 1625 2713 2034 2713 
Q 2441 2713 2670 2916 
Q 2900 3119 2900 3481 
Q 2900 3844 2670 4047 
Q 2441 4250 2034 4250 
Q 1625 4250 1398 4047 
Q 1172 3844 1172 3481 
z
" transform="scale(0.015625)"/>
       </defs>
       <use xlink:href="#DejaVuSans-30"/>
       <use xlink:href="#DejaVuSans-2e" x="63.623047"/>
       <use xlink:href="#DejaVuSans-38" x="95.410156"/>
      </g>
     </g>
    </g>
    <g id="ytick_5">
     <g id="line2d_11">
      <path d="M 557.16 224.04 
C 557.16 198.149186 552.060074 172.510128 542.152089 148.590134 
C 532.244103 124.670141 517.720743 102.934397 499.413173 84.626827 
C 481.105603 66.319257 459.369859 51.795897 435.449866 41.887911 
C 411.529872 31.979926 385.890814 26.88 360 26.88 
C 334.109186 26.88 308.470128 31.979926 284.550134 41.887911 
C 260.630141 51.795897 238.894397 66.319257 220.586827 84.626827 
C 202.279257 102.934397 187.755897 124.670141 177.847911 148.590134 
C 167.939926 172.510128 162.84 198.149186 162.84 224.04 
C 162.84 249.930814 167.939926 275.569872 177.847911 299.489866 
C 187.755897 323.409859 202.279257 345.145603 220.586827 363.453173 
C 238.894397 381.760743 260.630141 396.284103 284.550134 406.192089 
C 308.470128 416.100074 334.109186 421.2 360 421.2 
C 385.890814 421.2 411.529872 416.100074 435.449866 406.192089 
C 459.369859 396.284103 481.105603 381.760743 499.413173 363.453173 
C 517.720743 345.145603 532.244103 323.409859 542.152089 299.489866 
C 552.060074 275.569872 557.16 249.930814 557.16 224.04 
" clip-path="url(#pa89439139a)" style="fill: none; stroke: #b0b0b0; stroke-width: 0.8; stroke-linecap: square"/>
     </g>
     <g id="text_11">
      <!-- 1.0 -->
      <g transform="translate(542.152089 146.510447) scale(0.1 -0.1)">
       <defs>
        <path id="DejaVuSans-31" d="M 794 531 
L 1825 531 
L 1825 4091 
L 703 3866 
L 703 4441 
L 1819 4666 
L 2450 4666 
L 2450 531 
L 3481 531 
L 3481 0 
L 794 0 
L 794 531 
z
" transform="scale(0.015625)"/>
       </defs>
       <use xlink:href="#DejaVuSans-31"/>
       <use xlink:href="#DejaVuSans-2e" x="63.623047"/>
       <use xlink:href="#DejaVuSans-30" x="95.410156"/>
      </g>
     </g>
    </g>
   </g>
   <g id="line2d_12">
    <path d="M 360 224.04 
L 458.58 53.294431 
L 357.160896 219.122528 
L 261.42 224.04 
L 360 224.04 
L 360 224.04 
L 360 224.04 
" clip-path="url(#pa89439139a)" style="fill: none; stroke: #f08080; stroke-width: 2; stroke-linecap: square"/>
    <defs>
     <path id="m0f1daf3d1a" d="M 0 3 
C 0.795609 3 1.55874 2.683901 2.12132 2.12132 
C 2.683901 1.55874 3 0.795609 3 0 
C 3 -0.795609 2.683901 -1.55874 2.12132 -2.12132 
C 1.55874 -2.683901 0.795609 -3 0 -3 
C -0.795609 -3 -1.55874 -2.683901 -2.12132 -2.12132 
C -2.683901 -1.55874 -3 -0.795609 -3 0 
C -3 0.795609 -2.683901 1.55874 -2.12132 2.12132 
C -1.55874 2.683901 -0.795609 3 0 3 
z
" style="stroke: #f08080"/>
    </defs>
    <g clip-path="url(#pa89439139a)">
     <use xlink:href="#m0f1daf3d1a" x="360" y="224.04" style="fill: #f08080; stroke: #f08080"/>
     <use xlink:href="#m0f1daf3d1a" x="458.58" y="53.294431" style="fill: #f08080; stroke: #f08080"/>
     <use xlink:href="#m0f1daf3d1a" x="357.160896" y="219.122528" style="fill: #f08080; stroke: #f08080"/>
     <use xlink:href="#m0f1daf3d1a" x="261.42" y="224.04" style="fill: #f08080; stroke: #f08080"/>
     <use xlink:href="#m0f1daf3d1a" x="360" y="224.04" style="fill: #f08080; stroke: #f08080"/>
     <use xlink:href="#m0f1daf3d1a" x="360" y="224.04" style="fill: #f08080; stroke: #f08080"/>
     <use xlink:href="#m0f1daf3d1a" x="360" y="224.04" style="fill: #f08080; stroke: #f08080"/>
    </g>
   </g>
   <g id="line2d_13">
    <path d="M 360 224.04 
L 458.58 53.294431 
L 357.160896 219.122528 
L 261.42 224.04 
L 360 224.04 
L 360 224.04 
L 360 224.04 
" clip-path="url(#pa89439139a)" style="fill: none; stroke: #4682b4; stroke-width: 2; stroke-linecap: square"/>
    <defs>
     <path id="m3716d2d234" d="M 0 3 
C 0.795609 3 1.55874 2.683901 2.12132 2.12132 
C 2.683901 1.55874 3 0.795609 3 0 
C 3 -0.795609 2.683901 -1.55874 2.12132 -2.12132 
C 1.55874 -2.683901 0.795609 -3 0 -3 
C -0.795609 -3 -1.55874 -2.683901 -2.12132 -2.12132 
C -2.683901 -1.55874 -3 -0.795609 -3 0 
C -3 0.795609 -2.683901 1.55874 -2.12132 2.12132 
C -1.55874 2.683901 -0.795609 3 0 3 
z
" style="stroke: #4682b4"/>
    </defs>
    <g clip-path="url(#pa89439139a)">
     <use xlink:href="#m3716d2d234" x="360" y="224.04" style="fill: #4682b4; stroke: #4682b4"/>
     <use xlink:href="#m3716d2d234" x="458.58" y="53.294431" style="fill: #4682b4; stroke: #4682b4"/>
     <use xlink:href="#m3716d2d234" x="357.160896" y="219.122528" style="fill: #4682b4; stroke: #4682b4"/>
     <use xlink:href="#m3716d2d234" x="261.42" y="224.04" style="fill: #4682b4; stroke: #4682b4"/>
     <use xlink:href="#m3716d2d234" x="360" y="224.04" style="fill: #4682b4; stroke: #4682b4"/>
     <use xlink:href="#m3716d2d234" x="360" y="224.04" style="fill: #4682b4; stroke: #4682b4"/>
     <use xlink:href="#m3716d2d234" x="360" y="224.04" style="fill: #4682b4; stroke: #4682b4"/>
    </g>
   </g>
   <g id="patch_5">
    <path d="M 557.16 224.04 
C 557.16 198.149186 552.060074 172.510128 542.152089 148.590134 
C 532.244103 124.670141 517.720743 102.934397 499.413173 84.626827 
C 481.105603 66.319257 459.369859 51.795897 435.449866 41.887911 
C 411.529872 31.979926 385.890814 26.88 360 26.88 
C 334.109186 26.88 308.470128 31.979926 284.550134 41.887911 
C 260.630141 51.795897 238.894397 66.319257 220.586827 84.626827 
C 202.279257 102.934397 187.755897 124.670141 177.847911 148.590134 
C 167.939926 172.510128 162.84 198.149186 162.84 224.04 
C 162.84 249.930814 167.939926 275.569872 177.847911 299.489866 
C 187.755897 323.409859 202.279257 345.145603 220.586827 363.453173 
C 238.894397 381.760743 260.630141 396.284103 284.550134 406.192089 
C 308.470128 416.100074 334.109186 421.2 360 421.2 
C 385.890814 421.2 411.529872 416.100074 435.449866 406.192089 
C 459.369859 396.284103 481.105603 381.760743 499.413173 363.453173 
C 517.720743 345.145603 532.244103 323.409859 542.152089 299.489866 
C 552.060074 275.569872 557.16 249.930814 557.16 224.04 
" style="fill: none; stroke: #000000; stroke-width: 0.8; stroke-linejoin: miter; stroke-linecap: square"/>
   </g>
   <g id="text_12">
    <!-- multi_turn - 품질 메트릭 비교 -->
    <g transform="translate(294.349688 20.88) scale(0.12 -0.12)">
     <defs>
      <path id="DejaVuSans-6d" d="M 3328 2828 
Q 3544 3216 3844 3400 
Q 4144 3584 4550 3584 
Q 5097 3584 5394 3201 
Q 5691 2819 5691 2113 
L 5691 0 
L 5113 0 
L 5113 2094 
Q 5113 2597 4934 2840 
Q 4756 3084 4391 3084 
Q 3944 3084 3684 2787 
Q 3425 2491 3425 1978 
L 3425 0 
L 2847 0 
L 2847 2094 
Q 2847 2600 2669 2842 
Q 2491 3084 2119 3084 
Q 1678 3084 1418 2786 
Q 1159 2488 1159 1978 
L 1159 0 
L 581 0 
L 581 3500 
L 1159 3500 
L 1159 2956 
Q 1356 3278 1631 3431 
Q 1906 3584 2284 3584 
Q 2666 3584 2933 3390 
Q 3200 3197 3328 2828 
z
" transform="scale(0.015625)"/>
      <path id="DejaVuSans-5f" d="M 3263 -1063 
L 3263 -1509 
L -63 -1509 
L -63 -1063 
L 3263 -1063 
z
" transform="scale(0.015625)"/>
      <path id="DejaVuSans-20" transform="scale(0.015625)"/>
      <path id="DejaVuSans-2d" d="M 313 2009 
L 1997 2009 
L 1997 1497 
L 313 1497 
L 313 2009 
z
" transform="scale(0.015625)"/>
      <path id="DejaVuSans-d488" d="M 319 -1131 
L 319 4513 
L 3519 4513 
L 3519 -1131 
L 319 -1131 
z
M 678 -775 
L 3163 -775 
L 3163 4153 
L 678 4153 
L 678 -775 
z
" transform="scale(0.015625)"/>
      <path id="DejaVuSans-c9c8" d="M 319 -1131 
L 319 4513 
L 3519 4513 
L 3519 -1131 
L 319 -1131 
z
M 678 -775 
L 3163 -775 
L 3163 4153 
L 678 4153 
L 678 -775 
z
" transform="scale(0.015625)"/>
      <path id="DejaVuSans-ba54" d="M 319 -1131 
L 319 4513 
L 3519 4513 
L 3519 -1131 
L 319 -1131 
z
M 678 -775 
L 3163 -775 
L 3163 4153 
L 678 4153 
L 678 -775 
z
" transform="scale(0.015625)"/>
      <path id="DejaVuSans-d2b8" d="M 319 -1131 
L 319 4513 
L 3519 4513 
L 3519 -1131 
L 319 -1131 
z
M 678 -775 
L 3163 -775 
L 3163 4153 
L 678 4153 
L 678 -775 
z
" transform="scale(0.015625)"/>
      <path id="DejaVuSans-b9ad" d="M 319 -1131 
L 319 4513 
L 3519 4513 
L 3519 -1131 
L 319 -1131 
z
M 678 -775 
L 3163 -775 
L 3163 4153 
L 678 4153 
L 678 -775 
z
" transform="scale(0.015625)"/>
      <path id="DejaVuSans-be44" d="M 319 -1131 
L 319 4513 
L 3519 4513 
L 3519 -1131 
L 319 -1131 
z
M 678 -775 
L 3163 -775 
L 3163 4153 
L 678 4153 
L 678 -775 
z
" transform="scale(0.015625)"/>
      <path id="DejaVuSans-ad50" d="M 319 -1131 
L 319 4513 
L 3519 4513 
L 3519 -1131 
L 319 -1131 
z
M 678 -775 
L 3163 -775 
L 3163 4153 
L 678 4153 
L 678 -775 
z
" transform="scale(0.015625)"/>
     </defs>
     <use xlink:href="#DejaVuSans-6d"/>
     <use xlink:href="#DejaVuSans-75" x="97.412109"/>
     <use xlink:href="#DejaVuSans-6c" x="160.791016"/>
     <use xlink:href="#DejaVuSans-74" x="188.574219"/>
     <use xlink:href="#DejaVuSans-69" x="227.783203"/>
     <use xlink:href="#DejaVuSans-5f" x="255.566406"/>
     <use xlink:href="#DejaVuSans-74" x="305.566406"/>
     <use xlink:href="#DejaVuSans-75" x="344.775391"/>
     <use xlink:href="#DejaVuSans-72" x="408.154297"/>
     <use xlink:href="#DejaVuSans-6e" x="447.517578"/>
     <use xlink:href="#DejaVuSans-20" x="510.896484"/>
     <use xlink:href="#DejaVuSans-2d" x="542.683594"/>
     <use xlink:href="#DejaVuSans-20" x="578.767578"/>
     <use xlink:href="#DejaVuSans-d488" x="610.554688"/>
     <use xlink:href="#DejaVuSans-c9c8" x="670.564453"/>
     <use xlink:href="#DejaVuSans-20" x="730.574219"/>
     <use xlink:href="#DejaVuSans-ba54" x="762.361328"/>
     <use xlink:href="#DejaVuSans-d2b8" x="822.371094"/>
     <use xlink:href="#DejaVuSans-b9ad" x="882.380859"/>
     <use xlink:href="#DejaVuSans-20" x="942.390625"/>
     <use xlink:href="#DejaVuSans-be44" x="974.177734"/>
     <use xlink:href="#DejaVuSans-ad50" x="1034.1875"/>
    </g>
   </g>
   <g id="legend_1">
    <g id="patch_6">
     <path d="M 478.14125 64.23625 
L 550.16 64.23625 
Q 552.16 64.23625 552.16 62.23625 
L 552.16 33.88 
Q 552.16 31.88 550.16 31.88 
L 478.14125 31.88 
Q 476.14125 31.88 476.14125 33.88 
L 476.14125 62.23625 
Q 476.14125 64.23625 478.14125 64.23625 
z
" style="fill: #ffffff; opacity: 0.8; stroke: #cccccc; stroke-linejoin: miter"/>
    </g>
    <g id="line2d_14">
     <path d="M 480.14125 39.978437 
L 490.14125 39.978437 
L 500.14125 39.978437 
" style="fill: none; stroke: #f08080; stroke-width: 2; stroke-linecap: square"/>
     <g>
      <use xlink:href="#m0f1daf3d1a" x="490.14125" y="39.978437" style="fill: #f08080; stroke: #f08080"/>
     </g>
    </g>
    <g id="text_13">
     <!-- 베이스라인 -->
     <g transform="translate(508.14125 43.478437) scale(0.1 -0.1)">
      <defs>
       <path id="DejaVuSans-bca0" d="M 319 -1131 
L 319 4513 
L 3519 4513 
L 3519 -1131 
L 319 -1131 
z
M 678 -775 
L 3163 -775 
L 3163 4153 
L 678 4153 
L 678 -775 
z
" transform="scale(0.015625)"/>
       <path id="DejaVuSans-c774" d="M 319 -1131 
L 319 4513 
L 3519 4513 
L 3519 -1131 
L 319 -1131 
z
M 678 -775 
L 3163 -775 
L 3163 4153 
L 678 4153 
L 678 -775 
z
" transform="scale(0.015625)"/>
       <path id="DejaVuSans-c2a4" d="M 319 -1131 
L 319 4513 
L 3519 4513 
L 3519 -1131 
L 319 -1131 
z
M 678 -775 
L 3163 -775 
L 3163 4153 
L 678 4153 
L 678 -775 
z
" transform="scale(0.015625)"/>
       <path id="DejaVuSans-b77c" d="M 319 -1131 
L 319 4513 
L 3519 4513 
L 3519 -1131 
L 319 -1131 
z
M 678 -775 
L 3163 -775 
L 3163 4153 
L 678 4153 
L 678 -775 
z
" transform="scale(0.015625)"/>
       <path id="DejaVuSans-c778" d="M 319 -1131 
L 319 4513 
L 3519 4513 
L 3519 -1131 
L 319 -1131 
z
M 678 -775 
L 3163 -775 
L 3163 4153 
L 678 4153 
L 678 -775 
z
" transform="scale(0.015625)"/>
      </defs>
      <use xlink:href="#DejaVuSans-bca0"/>
      <use xlink:href="#DejaVuSans-c774" x="60.009766"/>
      <use xlink:href="#DejaVuSans-c2a4" x="120.019531"/>
      <use xlink:href="#DejaVuSans-b77c" x="180.029297"/>
      <use xlink:href="#DejaVuSans-c778" x="240.039062"/>
     </g>
    </g>
    <g id="line2d_15">
     <path d="M 480.14125 54.656563 
L 490.14125 54.656563 
L 500.14125 54.656563 
" style="fill: none; stroke: #4682b4; stroke-width: 2; stroke-linecap: square"/>
     <g>
      <use xlink:href="#m3716d2d234" x="490.14125" y="54.656563" style="fill: #4682b4; stroke: #4682b4"/>
     </g>
    </g>
    <g id="text_14">
     <!-- Greeum -->
     <g transform="translate(508.14125 58.156563) scale(0.1 -0.1)">
      <defs>
       <path id="DejaVuSans-47" d="M 3809 666 
L 3809 1919 
L 2778 1919 
L 2778 2438 
L 4434 2438 
L 4434 434 
Q 4069 175 3628 42 
Q 3188 -91 2688 -91 
Q 1594 -91 976 548 
Q 359 1188 359 2328 
Q 359 3472 976 4111 
Q 1594 4750 2688 4750 
Q 3144 4750 3555 4637 
Q 3966 4525 4313 4306 
L 4313 3634 
Q 3963 3931 3569 4081 
Q 3175 4231 2741 4231 
Q 1884 4231 1454 3753 
Q 1025 3275 1025 2328 
Q 1025 1384 1454 906 
Q 1884 428 2741 428 
Q 3075 428 3337 486 
Q 3600 544 3809 666 
z
" transform="scale(0.015625)"/>
      </defs>
      <use xlink:href="#DejaVuSans-47"/>
      <use xlink:href="#DejaVuSans-72" x="77.490234"/>
      <use xlink:href="#DejaVuSans-65" x="116.353516"/>
      <use xlink:href="#DejaVuSans-65" x="177.876953"/>
      <use xlink:href="#DejaVuSans-75" x="239.400391"/>
      <use xlink:href="#DejaVuSans-6d" x="302.779297"/>
     </g>
    </g>
   </g>
  </g>
 </g>
 <defs>
  <clipPath id="pa89439139a">
   <path d="M 557.16 224.04 
C 557.16 198.149186 552.060074 172.510128 542.152089 148.590134 
C 532.244103 124.670141 517.720743 102.934397 499.413173 84.626827 
C 481.105603 66.319257 459.369859 51.795897 435.449866 41.887911 
C 411.529872 31.979926 385.890814 26.88 360 26.88 
C 334.109186 26.88 308.470128 31.979926 284.550134 41.887911 
C 260.630141 51.795897 238.894397 66.319257 220.586827 84.626827 
C 202.279257 102.934397 187.755897 124.670141 177.847911 148.590134 
C 167.939926 172.510128 162.84 198.149186 162.84 224.04 
C 162.84 249.930814 167.939926 275.569872 177.847911 299.489866 
C 187.755897 323.409859 202.279257 345.145603 220.586827 363.453173 
C 238.894397 381.760743 260.630141 396.284103 284.550134 406.192089 
C 308.470128 416.100074 334.109186 421.2 360 421.2 
C 385.890814 421.2 411.529872 416.100074 435.449866 406.192089 
C 459.369859 396.284103 481.105603 381.760743 499.413173 363.453173 
C 517.720743 345.145603 532.244103 323.409859 542.152089 299.489866 
C 552.060074 275.569872 557.16 249.930814 557.16 224.04 
M 360 224.04 
C 360 224.04 360 224.04 360 224.04 
C 360 224.04 360 224.04 360 224.04 
C 360 224.04 360 224.04 360 224.04 
C 360 224.04 360 224.04 360 224.04 
C 360 224.04 360 224.04 360 224.04 
C 360 224.04 360 224.04 360 224.04 
C 360 224.04 360 224.04 360 224.04 
C 360 224.04 360 224.04 360 224.04 
C 360 224.04 360 224.04 360 224.04 
C 360 224.04 360 224.04 360 224.04 
C 360 224.04 360 224.04 360 224.04 
C 360 224.04 360 224.04 360 224.04 
C 360 224.04 360 224.04 360 224.04 
C 360 224.04 360 224.04 360 224.04 
C 360 224.04 360 224.04 360 224.04 
C 360 224.04 360 224.04 360 224.04 
z
"/>
  </clipPath>
 </defs>
</svg>
